<svg id="Layer_2" xmlns="http://www.w3.org/2000/svg" xmlns:xlink="http://www.w3.org/1999/xlink" viewBox="0 0 686.57 668.46"><defs><style>
      .cls-1 {
        fill: url(#linear-gradient);
      }
      .cls-2 {
        fill: #ecb22e;
      }
      .cls-3, .cls-4, .cls-5 {
        fill: #fff;
      }
      .cls-6 {
        fill: #fd3;
      }
      .cls-7 {
        fill: #fbf7ef;
      }
      .cls-8 {
        fill: #ff8080;
      }
      .cls-9 {
        fill: #7dff75;
      }
      .cls-10 {
        fill: #2eb67d;
      }
      .cls-11 {
        fill: #a5a197;
      }
      .cls-12 {
        fill: #aba3ff;
      }
      .cls-13 {
        fill: #e01e5a;
      }
      .cls-14 {
        fill: #d9d4c7;
      }
      .cls-15 {
        fill: #d6ccff;
      }
      .cls-16, .cls-17, .cls-18, .cls-19 {
        fill: #1c1c1e;
      }
      .cls-20 {
        fill: #443d8f;
      }
      .cls-21 {
        fill: #957565;
      }
      .cls-22 {
        fill: #36c5f0;
      }
      .cls-23 {
        fill: #4b53bc;
      }
      .cls-24 {
        fill: #5059c9;
      }
      .cls-25 {
        fill: #7d363d;
      }
      .cls-26 {
        fill: #2684ff;
      }
      .cls-27 {
        fill: #7b83eb;
      }
      .cls-28 {
        stroke-width: .43px;
      }
      .cls-28, .cls-29, .cls-18, .cls-30, .cls-4, .cls-31, .cls-5, .cls-32, .cls-33, .cls-34, .cls-35 {
        stroke: #1c1c1e;
      }
      .cls-28, .cls-18, .cls-35 {
        stroke-miterlimit: 10;
      }
      .cls-28, .cls-31, .cls-34, .cls-35 {
        fill: none;
      }
      .cls-17 {
        opacity: .2;
      }
      .cls-17, .cls-19 {
        isolation: isolate;
      }
      .cls-29 {
        fill: #ceff7a;
      }
      .cls-29, .cls-18, .cls-30, .cls-4, .cls-31, .cls-5, .cls-32, .cls-33, .cls-35 {
        stroke-width: .5px;
      }
      .cls-29, .cls-30, .cls-4, .cls-31, .cls-32, .cls-33, .cls-34 {
        stroke-linecap: round;
        stroke-linejoin: round;
      }
      .cls-30 {
        fill: #ffe771;
      }
      .cls-36 {
        fill: url(#linear-gradient-3);
      }
      .cls-37 {
        fill: url(#linear-gradient-2);
      }
      .cls-38 {
        fill: #2d8cff;
      }
      .cls-38, .cls-39, .cls-40, .cls-41, .cls-42 {
        fill-rule: evenodd;
      }
      .cls-39 {
        fill: #34a853;
      }
      .cls-40 {
        fill: #4285f4;
      }
      .cls-41 {
        fill: #ea4335;
      }
      .cls-42 {
        fill: #fbbc05;
      }
      .cls-19 {
        opacity: .1;
      }
      .cls-43 {
        fill: url(#radial-gradient);
        stroke: #afb1b2;
        stroke-width: .55px;
      }
      .cls-32 {
        fill: #f8a8ff;
      }
      .cls-33 {
        fill: #f7ffc2;
      }
      .cls-34 {
        stroke-width: .57px;
      }
    </style><linearGradient id="linear-gradient" x1="541.03" y1="-55.6" x2="13.03" y2="889.22" gradientTransform="translate(0 633.4) scale(1 -1)" gradientUnits="userSpaceOnUse"><stop offset="0" stop-color="#fff"></stop><stop offset="1" stop-color="#b2d2ff"></stop></linearGradient><linearGradient id="linear-gradient-2" x1="521.69" y1="572.69" x2="479.99" y2="644.93" gradientUnits="userSpaceOnUse"><stop offset="0" stop-color="#265938"></stop><stop offset=".32" stop-color="#669851"></stop><stop offset=".64" stop-color="#9ecf67"></stop><stop offset=".87" stop-color="#c0f274"></stop><stop offset="1" stop-color="#ceff7a"></stop></linearGradient><linearGradient id="linear-gradient-3" x1="249.49" y1="429.62" x2="241.6" y2="415.98" gradientTransform="translate(0 633.4) scale(1 -1)" gradientUnits="userSpaceOnUse"><stop offset="0" stop-color="#0052cc"></stop><stop offset=".92" stop-color="#2684ff"></stop></linearGradient><radialGradient id="radial-gradient" cx="-958.61" cy="1661.31" fx="-958.61" fy="1661.31" r="1.27" gradientTransform="translate(13783.63 23048.8) scale(14.22 -13.65)" gradientUnits="userSpaceOnUse"><stop offset="0" stop-color="#ffb900"></stop><stop offset=".6" stop-color="#f95d8f"></stop><stop offset="1" stop-color="#f95353"></stop></radialGradient></defs><g id="Layer_1-2"><g><path class="cls-9" d="M488.98,598.67c-12.01,2.66-22.91,5.64-33.57,9.19,0,0-5.5-1.75-7.69-3.34,1.35,3.18,6.54,6.23,6.54,6.23,0,0-7.91-2.07-9.85-3.12l2.92,3.09c-6.07,2.29-11.41,4.68-15.64,7.08,0,0,78.56,17.84,137.73-17.56-12.16-5.65-26.72-9.01-26.72-9.01-11.33-.2-28.89,2.11-48.12,6.21,0,0-8.88-1.95-13.14-4.41,3.35,4.64,11.58,7.29,11.58,7.29"></path><path class="cls-6" d="M621.35,546.37c-7.04,16.03-16.68,30.43-29.02,42.77-87.97,87.97-279.97,38.6-428.85-110.27C14.61,329.99-34.76,137.99,53.21,50.02c6.15-6.14,12.8-11.62,19.91-16.44"></path></g><path class="cls-1" d="M597.48,578.71c-87.2,87.2-277.73,38.06-425.55-109.76C24.11,321.13-25.04,130.61,62.17,43.4,83.57,22,111.2,8.81,142.89,3.28c5.34-.93,10.8-1.65,16.36-2.15,95.89-8.62,223.04,46.61,328.47,152.03,147.82,147.82,196.96,338.34,109.76,425.55Z"></path><path class="cls-37" d="M488.98,598.67c-12.01,2.66-22.91,5.64-33.57,9.19,0,0-5.5-1.75-7.69-3.34,1.35,3.18,6.54,6.23,6.54,6.23,0,0-7.91-2.07-9.85-3.12l2.92,3.09c-6.07,2.29-10.86,4.24-15.09,6.64,0,0,78.01,18.28,137.18-17.12-12.16-5.65-26.72-9.01-26.72-9.01-11.33-.2-28.89,2.11-48.12,6.21,0,0-8.88-1.95-13.14-4.41,3.35,4.64,11.58,7.29,11.58,7.29"></path><path class="cls-4" d="M275.73,206.34c0,13.34-10.81,24.15-24.15,24.15s-24.16-10.81-24.16-24.15,10.81-24.15,24.16-24.15,24.15,10.81,24.15,24.15Z"></path><path class="cls-6" d="M569.91,299.34c3.44,0,6.23-2.79,6.23-6.23s-2.79-6.23-6.23-6.23-6.23,2.79-6.23,6.23,2.79,6.23,6.23,6.23Z"></path><path class="cls-15" d="M565.66,319.37c.75,0,1.35-.61,1.35-1.35s-.6-1.36-1.35-1.36-1.36,.61-1.36,1.36,.61,1.35,1.36,1.35Z"></path><path class="cls-6" d="M442.25,375.71c1.51,0,2.73-1.22,2.73-2.73s-1.22-2.73-2.73-2.73-2.73,1.22-2.73,2.73,1.22,2.73,2.73,2.73Z"></path><path class="cls-6" d="M299.2,535.4c1.5,0,2.73-1.22,2.73-2.73s-1.23-2.73-2.73-2.73-2.73,1.22-2.73,2.73,1.22,2.73,2.73,2.73Z"></path><path class="cls-12" d="M166,126.89c-3.46,3.54-6.86,6.64-10.05,9.14-5.72,4.48-10.32,6.7-13.91,6.7-1.69,0-3.16-.49-4.42-1.48-3.91-3.07-3.68-9.3,.72-19.04,3.53-7.81,9.43-17.16,16.62-26.32,7.19-9.17,14.87-17.12,21.62-22.4,8.41-6.58,14.4-8.29,18.32-5.22,3.91,3.07,3.68,9.3-.72,19.04-1.76,3.9-4.12,8.19-6.94,12.65m-4.11-8.33c1.13-1.96,2.15-3.86,3.03-5.67,3.08-6.32,3.71-9.81,3.68-11.25-1.4,.32-4.65,1.76-10.05,6.25-5.87,4.88-12.5,11.9-18.67,19.76-6.17,7.86-11.41,15.97-14.76,22.83-3.09,6.32-3.71,9.82-3.68,11.26,1.41-.32,4.66-1.76,10.06-6.25,1.34-1.12,2.72-2.35,4.13-3.67"></path><path class="cls-4" d="M170.25,366.41c0,11.43-9.27,20.7-20.7,20.7s-20.7-9.27-20.7-20.7,9.27-20.7,20.7-20.7,20.7,9.27,20.7,20.7Z"></path><path class="cls-6" d="M390.29,150.89c.97,0,1.75-.78,1.75-1.75s-.78-1.75-1.75-1.75-1.75,.78-1.75,1.75,.79,1.75,1.75,1.75Z"></path><path class="cls-6" d="M189.86,154c.97,0,1.75-.78,1.75-1.75s-.78-1.75-1.75-1.75-1.74,.78-1.74,1.75,.78,1.75,1.74,1.75Z"></path><path class="cls-6" d="M42.57,147.58c.97,0,1.75-.78,1.75-1.75s-.78-1.75-1.75-1.75-1.75,.78-1.75,1.75,.78,1.75,1.75,1.75Z"></path><path class="cls-20" d="M78.35,96.17H10.97c-5.92,0-10.72,4.8-10.72,10.72s4.8,10.72,10.72,10.72H78.35c5.92,0,10.72-4.8,10.72-10.72s-4.8-10.72-10.72-10.72Z"></path><path class="cls-20" d="M89.02,121.46l5.47-3.2c.09-.05,.15-.14,.18-.24l1.5-5.94c.09-.35,.55-.4,.72-.08l6.8,13.29c.15,.3-.12,.63-.44,.55l-14.13-3.66c-.33-.08-.4-.53-.1-.71h0Z"></path><path class="cls-6" d="M586.53,114.31l-4.05-4.88c-.07-.08-.17-.13-.27-.14l-6.11-.51c-.35-.03-.48-.48-.2-.7l12.01-8.88c.27-.2,.65,.01,.62,.35l-1.32,14.54c-.03,.34-.46,.48-.68,.21h0Z"></path><path class="cls-12" d="M579.99,311.17l4.48,4.48c.07,.07,.17,.12,.28,.11l6.13-.05c.35,0,.52,.44,.26,.67l-11.14,9.94c-.25,.22-.65,.04-.65-.29l-.02-14.6c0-.34,.41-.52,.66-.28h0Z"></path><path class="cls-6" d="M369.83,571.35c.47-4.32,4.07-5.25,4.07-5.25-4-.86-4.07-5.51-4.07-5.51,0,0-.08,4.65-4.08,5.51,0,0,3.61,.93,4.08,5.25Z"></path><path class="cls-8" d="M119.75,445.96v14.27c0,.23,.1,.46,.26,.62l9.84,9.68c.57,.56,.14,1.54-.66,1.49l-33.56-1.91c-.75-.04-1.1-.95-.57-1.48l23.2-23.28c.55-.55,1.49-.16,1.49,.61h0Z"></path><path class="cls-6" d="M365.49,72.66c8.73,0,15.81-7.08,15.81-15.81s-7.08-15.81-15.81-15.81-15.8,7.08-15.8,15.81,7.07,15.81,15.8,15.81Z"></path><path class="cls-3" d="M29.36,235.15s7.09,26.19,16.06,47.71c8.97,21.52,15.31,34.18,15.31,34.18l7.02,13.53s16.44-21.35,9.67-48.32c0,0-2.77-22.77-27.35-39.09,0,0-10.71-6.41-20.71-8.01h0Z"></path><path class="cls-7" d="M355.09,433.17c-5.41-2.1-9.26-7.36-9.26-13.51,0-2.03,.42-3.97,1.18-5.73"></path><path class="cls-3" d="M372.11,428.09c2.02,8.9,1.38,15.86-2.12,17.33-4.93,2.08-13.7-7.56-19.58-21.52-5.88-13.97-6.65-26.97-1.71-29.05,3.48-1.46,8.86,2.89,13.8,10.48"></path><path class="cls-7" d="M353.36,407.01c.16-.09,.2-.16,.36-.25,1.98-1.02,4.23-1.59,6.61-1.59,8,0,14.49,6.48,14.49,14.49,0,6.39-4.19,11.92-9.93,13.85"></path><path class="cls-7" d="M364.97,433.47c-2.61,1.1-7.23-3.99-10.33-11.35-3.1-7.36-3.5-14.22-.9-15.32"></path><path class="cls-8" d="M144.84,110.28c-.41-1.66-.62-3.39-.62-5.18,0-11.99,9.69-21.72,21.67-21.79h.13s-8.61,8.27-18.12,22.28l-3.05,4.69h0Z"></path><path class="cls-8" d="M148.96,118.67c3.99,5.01,10.15,8.22,17.05,8.22,12.04,0,21.79-9.76,21.79-21.79,0-8.82-5.24-16.42-12.78-19.85,0,0-15.21,14.66-25.45,32.36l-.61,1.06Z"></path><path class="cls-7" d="M381.2,55.66s-2.58-3.17-7.32,0c-4.73,3.17-4.9,8.71-4.9,8.71,0,0-.03,1.62,1.7,1.29,1.74-.33,4.22-4.57,7.24-4.38,3.02,.18,1.18,3.61,1.18,3.61,0,0,2.71-4.04,2.1-9.22h0Z"></path><path class="cls-7" d="M375.14,65.7c-2.72,1.1-3.59,2.54-3.76,3.46-.16,.92,.06,2.16,1,1.96,.94-.2,4.65-3.08,5.5-4.5,0,0-.03-2.01-2.74-.92h0Z"></path><path class="cls-7" d="M366.18,58.9s4.14-7.29,10.85-7.93c0,0,1.73-.22,3.36,.81,0,0-.94-3.69-3.99-6.27,0,0-4.92-.41-8.81,3.29l-1.55,1.55s-2.16,3.49-3.25,3.28c-1.09-.21,.7-4.06,.7-4.06l2.51-2.43s5.51-4.78,1.27-5.99c0,0-3.26-.43-5.09,.25,0,0-3.82,2.64-5.48,6.92-1.66,4.28-1.14,6.57-1.14,6.57,0,0,.14,1.26,1.55,1.97,1.42,.72,2.05,1.01,2.54,2.64,.5,1.62,.24,6.62-.99,6.83-1.24,.2,0-4-2.37-5.94-2.36-1.94-3.05,1.29-3.05,1.29,0,0-.71,3.34,.99,6.42,0,0,5.88,5.76,13.8,4.33,0,0-7-2.69-1.85-13.51h0Z"></path><path class="cls-7" d="M351.76,49.05c-2.67,3.91-1.93,9.89-1.93,9.89,2.43,1.03,3.27-3.81,3.27-3.81,.35-4.53-1.34-6.08-1.34-6.08Z"></path><path class="cls-15" d="M225.21,168.35c-.06-.03-.09-.04-.09-.04,.03,.01,.06,.03,.09,.04Z"></path><path class="cls-15" d="M225.37,168.42c-.05-.03-.11-.05-.17-.08,.05,.02,.1,.05,.17,.08Z"></path><path class="cls-25" d="M177.82,86.79s-18.06,16.84-10.96,40.08c0,0-6.82,.33-10.93-2.44,0,0-2.14-10.87,.81-17.82,0,0,10.63-14.44,18.27-21.35l2.81,1.54h0Z"></path><path class="cls-31" d="M573.18,598.04c-40.94,25.36-96.05,29.99-156.33,16.19"></path><path class="cls-31" d="M515.88,183.03c58.47,66.39,97.85,139.01,115.04,205.9"></path><path class="cls-31" d="M378.51,65.83c31.25,19.43,62.18,42.97,91.69,70.34"></path><path class="cls-31" d="M159.25,1.14c56.71-5.13,124.38,12.08,192.02,48.82"></path><path class="cls-31" d="M29.43,96.17c7.13-20.1,18.02-37.94,32.86-52.78C83.67,22.02,111.25,8.84,142.9,3.29l16.61-2.29"></path><path class="cls-31" d="M389.53,606.82c-72.02-22.5-149.29-69.69-217.48-137.87C58,354.9,2.69,215.44,23.42,117.61"></path><path class="cls-31" d="M22.88,96.17c7.14-17.4,17.25-32.95,30.46-46.15,6.15-6.15,12.8-11.62,19.91-16.44"></path><path class="cls-31" d="M382.1,617.46c-72.4-22.69-150.01-70.11-218.48-138.6C45.91,361.16-9.59,216.5,15.8,117.61"></path><path class="cls-31" d="M585.54,595.59c-43.52,37.84-108.94,45.92-181.24,28.09"></path><path class="cls-31" d="M175.9,472.76s2.65-33.63-53.92-13.34"></path><path class="cls-31" d="M119.76,445.96v14.27c0,.23,.09,.46,.26,.62l9.84,9.68c.57,.56,.14,1.54-.66,1.49l-33.56-1.91c-.75-.04-1.1-.95-.57-1.48l23.2-23.28c.55-.55,1.49-.16,1.49,.61h0Z"></path><path class="cls-4" d="M191.69,311.31c18.98,0,34.36-15.39,34.36-34.37s-15.38-34.36-34.36-34.36-34.37,15.39-34.37,34.36,15.38,34.37,34.37,34.37Z"></path><path class="cls-31" d="M365.49,72.66c8.73,0,15.81-7.08,15.81-15.81s-7.08-15.81-15.81-15.81-15.8,7.08-15.8,15.81,7.07,15.81,15.8,15.81Z"></path><path class="cls-4" d="M255.13,156.15c7.67,0,13.88-6.22,13.88-13.89s-6.21-13.89-13.88-13.89-13.89,6.22-13.89,13.89,6.22,13.89,13.89,13.89Z"></path><path class="cls-4" d="M281.03,90.57c8.35,0,15.11-6.76,15.11-15.11s-6.76-15.11-15.11-15.11-15.1,6.76-15.1,15.11,6.76,15.11,15.1,15.11Z"></path><path class="cls-4" d="M303.97,115.42c5.51,0,9.98-4.47,9.98-9.98s-4.47-9.98-9.98-9.98-9.97,4.47-9.97,9.98,4.46,9.98,9.97,9.98Z"></path><path class="cls-31" d="M569.91,299.34c3.44,0,6.23-2.79,6.23-6.23s-2.79-6.23-6.23-6.23-6.23,2.79-6.23,6.23,2.79,6.23,6.23,6.23Z"></path><path class="cls-31" d="M565.66,319.37c.75,0,1.35-.61,1.35-1.35s-.6-1.36-1.35-1.36-1.36,.61-1.36,1.36,.61,1.35,1.36,1.35Z"></path><path class="cls-31" d="M442.25,375.71c1.51,0,2.73-1.22,2.73-2.73s-1.22-2.73-2.73-2.73-2.73,1.22-2.73,2.73,1.22,2.73,2.73,2.73Z"></path><path class="cls-31" d="M299.2,535.4c1.5,0,2.73-1.22,2.73-2.73s-1.23-2.73-2.73-2.73-2.73,1.22-2.73,2.73,1.22,2.73,2.73,2.73Z"></path><path class="cls-31" d="M166,126.89c-3.46,3.54-6.86,6.64-10.05,9.14-5.72,4.48-10.32,6.7-13.91,6.7-1.69,0-3.16-.49-4.42-1.48-3.91-3.07-3.68-9.3,.72-19.04,3.53-7.81,9.43-17.16,16.62-26.32,7.19-9.17,14.87-17.12,21.62-22.4,8.41-6.58,14.4-8.29,18.32-5.22,3.91,3.07,3.68,9.3-.72,19.04-1.76,3.9-4.12,8.19-6.94,12.65m-4.11-8.33c1.13-1.96,2.15-3.86,3.03-5.67,3.08-6.32,3.71-9.81,3.68-11.25-1.4,.32-4.65,1.76-10.05,6.25-5.87,4.88-12.5,11.9-18.67,19.76-6.17,7.86-11.41,15.97-14.76,22.83-3.09,6.32-3.71,9.82-3.68,11.26,1.41-.32,4.66-1.76,10.06-6.25,1.34-1.12,2.72-2.35,4.13-3.67"></path><path class="cls-31" d="M144.84,110.28c-.41-1.66-.62-3.39-.62-5.18,0-11.99,9.69-21.72,21.67-21.79h.13"></path><path class="cls-31" d="M175.02,85.25c7.54,3.43,12.78,11.03,12.78,19.85,0,12.03-9.75,21.79-21.79,21.79-6.9,0-13.06-3.21-17.05-8.22"></path><path class="cls-31" d="M355.09,433.17c-5.41-2.1-9.26-7.36-9.26-13.51,0-2.03,.42-3.97,1.18-5.73"></path><path class="cls-31" d="M372.11,428.09c2.02,8.9,1.38,15.86-2.12,17.33-4.93,2.08-13.7-7.56-19.58-21.52-5.88-13.97-6.65-26.97-1.71-29.05,3.48-1.46,8.86,2.89,13.8,10.48"></path><path class="cls-4" d="M284.67,444.12c18.99,0,34.37-15.39,34.37-34.37s-15.38-34.37-34.37-34.37-34.36,15.39-34.36,34.37,15.38,34.37,34.36,34.37Z"></path><path class="cls-31" d="M390.29,150.89c.97,0,1.75-.78,1.75-1.75s-.78-1.75-1.75-1.75-1.75,.78-1.75,1.75,.79,1.75,1.75,1.75Z"></path><path class="cls-31" d="M189.86,154c.97,0,1.75-.78,1.75-1.75s-.78-1.75-1.75-1.75-1.74,.78-1.74,1.75,.78,1.75,1.74,1.75Z"></path><path class="cls-31" d="M42.57,147.58c.97,0,1.75-.78,1.75-1.75s-.78-1.75-1.75-1.75-1.75,.78-1.75,1.75,.78,1.75,1.75,1.75Z"></path><path class="cls-4" d="M338.16,277.05c14.54,0,26.33-11.79,26.33-26.33s-11.79-26.33-26.33-26.33-26.33,11.79-26.33,26.33,11.79,26.33,26.33,26.33Z"></path><path class="cls-32" d="M86.16,223.29c8.23,0,14.91-6.67,14.91-14.91s-6.67-14.91-14.91-14.91-14.91,6.67-14.91,14.91,6.67,14.91,14.91,14.91Z"></path><path class="cls-33" d="M73.27,167.44c2.99-4.63,9.16-4.38,9.16-4.38,1.22-5.31,5.47-7.29,5.47-7.29-1.83-5.06,0-9.18,0-9.18-5.43-2.34-5.33-7.24-5.33-7.24-8.21-.53-9.31-4.84-9.31-4.84,0,0-1.1,4.32-9.31,4.84,0,0,.1,4.91-5.33,7.24,0,0,1.83,4.13,0,9.18,0,0,4.26,1.98,5.47,7.29,0,0,6.18-.25,9.17,4.38Z"></path><path class="cls-31" d="M78.35,96.17H10.97c-5.92,0-10.72,4.8-10.72,10.72s4.8,10.72,10.72,10.72H78.35c5.92,0,10.72-4.8,10.72-10.72s-4.8-10.72-10.72-10.72Z"></path><path class="cls-31" d="M89.02,121.46l5.47-3.2c.09-.05,.15-.14,.18-.24l1.5-5.94c.09-.35,.55-.4,.72-.08l6.8,13.29c.15,.3-.12,.63-.44,.55l-14.13-3.66c-.33-.08-.4-.53-.1-.71h0Z"></path><path class="cls-34" d="M586.53,114.31l-4.05-4.88c-.07-.08-.17-.13-.27-.14l-6.11-.51c-.35-.03-.48-.48-.2-.7l12.01-8.88c.27-.2,.65,.01,.62,.35l-1.32,14.54c-.03,.34-.46,.48-.68,.21h0Z"></path><path class="cls-29" d="M378.75,347.52l-11.98-1.67c-.19-.03-.39,.02-.55,.14l-9.22,6.92c-.54,.4-1.31-.06-1.18-.71l5.36-27.23c.12-.61,.92-.79,1.31-.29l16.95,21.7c.4,.51-.03,1.24-.68,1.15h-.01Z"></path><path class="cls-31" d="M579.99,311.17l4.48,4.48c.07,.08,.17,.12,.28,.11l6.13-.05c.35,0,.52,.44,.26,.67l-11.14,9.94c-.25,.22-.65,.04-.65-.29l-.02-14.6c0-.34,.41-.52,.66-.28h0Z"></path><path class="cls-31" d="M585.29,313.49s5.88-18.53,18.79-18.97c12.91-.44,8.26,22.88,4.79,36.86-3.47,13.98-3.77,36.33,12.61,26.47"></path><path class="cls-31" d="M581.6,438.71s16.06-33.15-13.26-41.49c-37.36-10.63-173.6,50.22-200.64-47.65"></path><path class="cls-31" d="M550.84,226.5s-8.38-5.32-20.39-2.34c0,0-8.31,2.77-6.36,12.32,0,0,2.51,8.83,11.27,3.68,3.41-2.01,6.04-5.1,7.63-8.72,3.97-9.01,8.1-29.66-16.14-58.49"></path><path class="cls-31" d="M469.06,138.2s-14.55-3.95-21.84,2.72c-7.28,6.67,.42,23.61,31,24.84,30.59,1.23,83.03-20.53,102.84-54.6"></path><path class="cls-31" d="M314.9,343.56l46.37-24.04"></path><path class="cls-31" d="M149.55,343.25l21.18-35.3"></path><path class="cls-31" d="M171.62,374.82l76.58,21.73"></path><path class="cls-31" d="M213.15,245.95l20.18-19.55"></path><path class="cls-31" d="M310.29,239.44l-35.3-20.48"></path><path class="cls-31" d="M260.74,124.87l13.5-32.5"></path><path class="cls-31" d="M292.57,111.3l-21.83,19.58"></path><path class="cls-31" d="M252.83,160.18v19.55"></path><path class="cls-31" d="M316.1,100.55l77.94-24.71"></path><path class="cls-31" d="M294.8,63.39l32.2-25.77"></path><path class="cls-31" d="M29.48,235.15c28.21,5.52,49.5,30.38,49.5,60.2,0,13.1-4.11,25.25-11.11,35.22"></path><path class="cls-31" d="M353.36,407.01c.16-.09,.2-.16,.36-.25,1.98-1.02,4.23-1.59,6.61-1.59,8,0,14.49,6.48,14.49,14.49,0,6.39-4.19,11.92-9.93,13.85"></path><path class="cls-31" d="M364.97,433.47c-2.61,1.1-7.23-3.99-10.33-11.35-3.1-7.36-3.5-14.22-.9-15.32"></path><path class="cls-31" d="M211.05,491.03l-6.47,8.3"></path><path class="cls-31" d="M73.84,199.99c-5.83-6.35-9.24-11.14-8.34-12.09,1.34-1.42,11.89,6.38,23.57,17.42,11.67,11.04,20.05,21.14,18.71,22.56-.89,.94-5.87-2.2-12.54-7.67"></path><path class="cls-31" d="M69.73,204.39c-6.58-3.25-10.64-5.95-10.21-7.04,.71-1.82,13.42,1.43,28.4,7.26,14.98,5.83,26.54,12.02,25.83,13.84-.42,1.07-4.97,.39-11.69-1.53"></path><path class="cls-31" d="M369.83,571.35c.47-4.32,4.07-5.25,4.07-5.25-4-.86-4.07-5.51-4.07-5.51,0,0-.08,4.65-4.08,5.51,0,0,3.61,.93,4.08,5.25Z"></path><path class="cls-31" d="M363.49,267.67l38.57,22.81"></path><path class="cls-31" d="M381.25,55.69s-2.54-3.06-6.86-.38c-4.32,2.68-5.35,8.45-5.35,8.45,0,0-.46,1.84,1.09,2,1.55,.16,3.47-3,5.93-4.09,2.45-1.09,4.14,.06,3.49,2.38"></path><path class="cls-31" d="M377.92,66.62s-.04-2.4-3.81-.49c-3.77,1.91-3.06,5.16-1.78,4.98"></path><path class="cls-31" d="M368.27,72.42s-6.87-1.88-2.42-12.55c0,0,2.39-6.44,9.87-8.8,0,0,4.06-.78,4.93,1.31"></path><path class="cls-31" d="M376.57,45.58s-6.34-1.02-11.25,5.83c-3.9,5.44-3.79-.49,0-3.74,4.34-3.71,4.05-6.13,1.94-6.52"></path><path class="cls-31" d="M362.18,41.39s-6.71,4.72-6.73,12.53c0,0-.4,2.28,2.36,3.22,2.75,.95,2.06,6.16,2.06,6.16,0,0-.23,3-1.29,2.97-1.07-.03,.11-4.96-2.65-6.29-2.75-1.33-4.04,2.96-1.75,7.91"></path><path class="cls-31" d="M349.83,58.94s1.74,1.41,3.03-2.83c1.29-4.24-1.09-7.09-1.09-7.09"></path><path class="cls-4" d="M472.84,313.46c0,20.09-16.49,36.38-36.84,36.38s-36.85-16.29-36.85-36.38,16.49-36.38,36.85-36.38,36.84,16.29,36.84,36.38Z"></path><path class="cls-5" d="M317.62,343.56c0,1.5-1.22,2.72-2.72,2.72s-2.72-1.22-2.72-2.72,1.22-2.72,2.72-2.72,2.72,1.22,2.72,2.72Z"></path><path class="cls-5" d="M363.98,319.52c0,1.5-1.22,2.72-2.72,2.72s-2.72-1.22-2.72-2.72,1.22-2.72,2.72-2.72,2.72,1.22,2.72,2.72Z"></path><path class="cls-30" d="M73.27,157.19c3.28,0,5.94-2.66,5.94-5.94s-2.66-5.94-5.94-5.94-5.94,2.66-5.94,5.94,2.66,5.94,5.94,5.94Z"></path><path class="cls-4" d="M498.62,181.7c15.88,0,28.75-12.87,28.75-28.75s-12.87-28.75-28.75-28.75-28.75,12.87-28.75,28.75,12.87,28.75,28.75,28.75Z"></path><path class="cls-15" d="M521.94,155.07c-3.57-2.08-15.23,3.71-15.23,3.71,0,0-9.38,4.23-19.05,4.87-9.66,.64-17.34-5.43-17.34-5.43l.59,2.44c5.61,7.59,25.22,5.98,25.22,5.98l13.2-1.43s8.59-.28,7.12,5.76c-1.47,6.05-11.74,10.07-11.74,10.07,8.89-1.94,14.45-8.03,14.45-8.03,0,0,3.63-3.85,5.32-7.42,1.69-3.57,1.23-6.43,1.23-6.43-.66-3.5-3.78-4.09-3.78-4.09h.01Z"></path><path class="cls-15" d="M527.01,148.91s-4.32-4.26-14.16-1.59c-9.85,2.68-16.66,3.86-24.13,.99-7.47-2.88-11.36-8.69-17.6-3.79,0,0-1.33,4.1-1.25,7.34,0,0,3.07,6.86,15.25,6.23,12.18-.64,21.4-6.81,32.17-8.83,0,0,8.06-1.8,10.08,3.7,0,0,.12-2.69-.35-4.04h-.01Z"></path><path class="cls-15" d="M496.87,134.28c7.06,3.85,13.18,4.97,13.18,4.97,10.46,.54,8.65-6.85,8.65-6.85-2.72-2.85-7.65-5.26-9.02-5.89,3.54,1.86,6.36,10.63-5.5,7.34-12.27-3.41-9.44-9.38-9.44-9.38-13.23,1.75-18.52,10.65-18.52,10.65,11.32-6.81,20.65-.83,20.65-.83h0Z"></path><path class="cls-15" d="M492.84,175.11c-11.55,1.55-16.01-3.65-16.01-3.65,1.81,3.54,10.94,9.44,15.98,9.66,5.05,.22,7.11-2.3,7.11-2.3,0,0,4.46-5.26-7.08-3.71Z"></path><path class="cls-31" d="M498.62,181.7c15.88,0,28.75-12.87,28.75-28.75s-12.87-28.75-28.75-28.75-28.75,12.87-28.75,28.75,12.87,28.75,28.75,28.75Z"></path><path class="cls-31" d="M518.58,132.26s1.43,5.91-5.1,6.87c-6.54,.96-15.96-4.49-15.96-4.49,0,0-10.82-7.08-21.94,1.11"></path><path class="cls-31" d="M509.11,126.18s6.33,4.22,2.52,7.42c-3.81,3.2-20.37-3.28-16.76-9.16"></path><path class="cls-31" d="M527.1,149s-3.64-4.05-13.14-1.93c-9.5,2.12-14.63,5.13-25.82,1.04l-1.93-.91c-.91-.43-1.78-.93-2.61-1.51-2.37-1.65-8.38-5.11-12.48-1.18"></path><path class="cls-31" d="M469.86,151.64s2.96,7.42,16.83,6.34c13.87-1.08,35.76-16.06,40.67-5.03"></path><path class="cls-31" d="M525.24,163.82s3.11-7.93-4.87-9.21-31.42,18.34-50.04,3.48"></path><path class="cls-31" d="M470.92,160.67s4.84,6.89,22.23,6.21c0,0,5.38-.36,8.82-.96,3.45-.6,11.59-1.77,13.88,1.44,1.28,1.81,1.91,8.66-12.24,13.91"></path><path class="cls-31" d="M492.81,181.11s5.96,.43,7.64-3.01c0,0,1-1.72-.72-2.81-1.72-1.08-4.7-.61-7.72,0-3.03,.61-11.88,.7-16.85-5.73"></path><path class="cls-13" d="M178.84,282.77c0,2.55-2.09,4.63-4.64,4.63s-4.63-2.08-4.63-4.63,2.09-4.64,4.63-4.64h4.64v4.64Z"></path><path class="cls-13" d="M181.17,282.77c0-2.55,2.09-4.64,4.63-4.64s4.64,2.09,4.64,4.64v11.61c0,2.55-2.09,4.64-4.64,4.64s-4.63-2.09-4.63-4.64v-11.61Z"></path><path class="cls-22" d="M185.8,264.15c-2.54,0-4.63-2.08-4.63-4.63s2.09-4.64,4.63-4.64,4.64,2.09,4.64,4.64v4.63h-4.64Z"></path><path class="cls-22" d="M185.81,266.49c2.54,0,4.63,2.08,4.63,4.64s-2.09,4.63-4.63,4.63h-11.62c-2.54,0-4.63-2.08-4.63-4.63s2.09-4.64,4.63-4.64h11.62Z"></path><path class="cls-10" d="M204.42,271.12c0-2.55,2.09-4.64,4.64-4.64s4.63,2.08,4.63,4.64-2.09,4.63-4.63,4.63h-4.64v-4.63Z"></path><path class="cls-10" d="M202.09,271.12c0,2.55-2.09,4.64-4.63,4.64s-4.64-2.09-4.64-4.64v-11.61c0-2.55,2.09-4.64,4.64-4.64s4.63,2.09,4.63,4.64v11.61Z"></path><path class="cls-2" d="M197.46,289.73c2.54,0,4.63,2.08,4.63,4.64s-2.09,4.63-4.63,4.63-4.64-2.08-4.64-4.63v-4.64h4.64Z"></path><path class="cls-2" d="M197.46,287.4c-2.56,0-4.64-2.08-4.64-4.63s2.09-4.64,4.64-4.64h11.6c2.54,0,4.63,2.09,4.63,4.64s-2.09,4.63-4.63,4.63h-11.6Z"></path><path class="cls-27" d="M433,303.55c3.92,0,7.11-3.19,7.11-7.12s-3.19-7.12-7.11-7.12-7.12,3.19-7.12,7.12,3.19,7.12,7.12,7.12Z"></path><path class="cls-19" d="M435.48,299.96h-6.44s.03,.09,.04,.14h0c.01,.05,.01,.1,.03,.14,.97,3.69,4.68,5.96,8.41,5.14v-3.39c0-1.12-.91-2.03-2.04-2.03Z"></path><path class="cls-17" d="M433.96,301.49h-4.4c1.18,2.48,3.68,4.07,6.44,4.07v-2.03c-.01-1.12-.91-2.03-2.04-2.03Z"></path><path class="cls-24" d="M449.01,304.06c2.95,0,5.33-2.39,5.33-5.34s-2.38-5.34-5.33-5.34-5.34,2.39-5.34,5.34,2.39,5.34,5.34,5.34Z"></path><path class="cls-24" d="M456.58,307.59h-11.98c-.54,0-.97,.44-.97,.97v12.37c-.08,3.69,2.45,6.92,6.05,7.75,2.24,.47,4.59-.09,6.38-1.54,1.78-1.45,2.82-3.62,2.82-5.92v-11.34c0-1.26-1.02-2.29-2.29-2.29Z"></path><path class="cls-27" d="M448.19,309.87v14.49c.01,5.52-3.69,10.35-9.03,11.78-5.33,1.43-10.96-.9-13.72-5.68-.29-.49-.54-1-.76-1.52-.2-.5-.37-1.01-.51-1.52-.25-1-.38-2.02-.38-3.05v-14.49c0-.61,.24-1.19,.67-1.62,.43-.43,1.01-.67,1.62-.67h19.81c.61,0,1.19,.24,1.62,.67,.43,.43,.67,1.01,.67,1.62Z"></path><path class="cls-17" d="M433.96,301.49h-4.4c1.18,2.48,3.68,4.07,6.44,4.07v-2.03c-.01-1.12-.91-2.03-2.04-2.03Z"></path><path class="cls-19" d="M437.52,307.59v19.32c0,.95-.67,1.77-1.59,1.97-.14,.04-.29,.06-.44,.06h-10.81c-.2-.5-.37-1.01-.51-1.52-.25-1-.38-2.02-.38-3.05v-14.49c0-.61,.24-1.19,.67-1.62,.43-.43,1.01-.67,1.62-.67h11.44Z"></path><path class="cls-17" d="M435.99,307.59v20.84c0,.15-.01,.3-.06,.44-.2,.92-1.01,1.59-1.96,1.59h-8.53c-.29-.49-.54-1-.76-1.52-.2-.5-.37-1.01-.51-1.52-.25-1-.38-2.02-.38-3.05v-14.49c0-.61,.24-1.19,.67-1.62,.43-.43,1.01-.67,1.62-.67h9.91Z"></path><path class="cls-17" d="M435.99,307.59v17.79c0,1.12-.91,2.02-2.02,2.03h-9.79c-.25-1-.38-2.02-.38-3.05v-14.49c0-.61,.24-1.19,.67-1.62,.43-.43,1.01-.67,1.62-.67h9.91Z"></path><path class="cls-17" d="M426.08,307.59c-.61,0-1.19,.24-1.62,.67-.43,.43-.67,1.01-.67,1.62v14.49c0,1.03,.13,2.05,.38,3.05h8.26c1.13,0,2.02-.91,2.04-2.03v-17.79h-8.39Z"></path><path class="cls-23" d="M412.1,301.49h20.33c1.13,0,2.04,.91,2.04,2.03v20.33c0,1.12-.91,2.03-2.04,2.03h-20.33c-1.11,0-2.02-.91-2.02-2.03v-20.33c0-1.12,.91-2.03,2.02-2.03Z"></path><path class="cls-3" d="M428.33,309.07h-4.56v12.23h-3v-12.23h-4.58v-3.01h12.13v3.01Z"></path><path class="cls-36" d="M245.4,201.48c-.09-.12-.23-.21-.35-.27-.14-.06-.3-.08-.44-.06-.16,.02-.3,.07-.42,.16-.12,.09-.21,.2-.28,.34l-7.45,14.93c-.07,.14-.12,.29-.09,.44,0,.15,.05,.3,.12,.43,.09,.13,.21,.24,.32,.31,.14,.07,.3,.11,.44,.11h10.39c.16,0,.32-.04,.46-.13,.14-.09,.25-.22,.32-.37,2.24-4.63,.88-11.68-3.03-15.89Z"></path><path class="cls-26" d="M250.86,187.9c-1.85,2.86-2.94,6.16-3.15,9.57-.19,3.41,.49,6.81,1.99,9.87l5.02,10.03c.07,.15,.19,.27,.32,.36,.14,.09,.3,.13,.46,.13h10.39c.14,0,.3-.04,.42-.11,.14-.07,.25-.18,.32-.31,.09-.13,.14-.28,.14-.43s-.02-.3-.09-.44c0,0-13.95-27.98-14.3-28.68-.07-.14-.19-.26-.32-.35-.14-.08-.28-.13-.44-.13s-.32,.05-.46,.13c-.12,.08-.23,.2-.3,.35Z"></path><path class="cls-40" d="M308.72,405.5h-22.84v9.71h12.75c-.58,3.11-2.3,5.39-4.93,7.15v6.25h8.05c4.71-4.33,7.43-10.72,7.43-18.3,0-1.77-.16-3.46-.46-4.82Z"></path><path class="cls-39" d="M285.29,434.65c6.72,0,12.35-2.23,16.47-6.03l-8.05-6.25c-2.23,1.49-5.09,2.38-8.43,2.38-6.49,0-11.97-4.38-13.93-10.26h-8.33v6.45c4.1,8.14,12.53,13.71,22.26,13.71Z"></path><path class="cls-42" d="M271.34,414.48c-.49-1.49-.78-3.09-.78-4.73s.28-3.24,.78-4.73v-6.45h-8.33c-1.73,3.47-2.64,7.3-2.64,11.18s.96,7.82,2.64,11.18l8.33-6.45Z"></path><path class="cls-41" d="M285.29,394.76c3.64,0,6.93,1.26,9.52,3.72l7.14-7.14c-4.31-4.02-9.95-6.48-16.65-6.48-9.74,0-18.16,5.58-22.26,13.71l8.33,6.45c1.96-5.88,7.44-10.26,13.93-10.26h0Z"></path><path class="cls-43" d="M151.93,371.74c0-3.25,2.53-5.86,5.63-5.86s5.63,2.61,5.63,5.86-2.53,5.86-5.63,5.86-5.63-2.62-5.63-5.86Zm-15.35,0c0-3.25,2.53-5.86,5.63-5.86s5.64,2.62,5.64,5.86-2.53,5.86-5.64,5.86-5.63-2.62-5.63-5.86Zm18.94-13.8c0,3.25-2.53,5.86-5.63,5.86s-5.63-2.62-5.63-5.86,2.53-5.86,5.63-5.86,5.63,2.62,5.63,5.86Z"></path><path class="cls-38" d="M334.15,247.17c-.98-.98-2.25-1.46-3.55-1.46s-2.58,.49-3.56,1.46c-1.96,1.95-1.96,5.12,0,7.08,1.96,1.95,5.14,1.95,7.11,0,1.96-1.95,1.96-5.13,0-7.08Zm-1.41,5.67c-1.18,1.18-3.09,1.18-4.27,0-1.18-1.18-1.18-3.08,0-4.24,1.19-1.18,3.1-1.18,4.27,0,1.16,1.16,1.16,3.07,0,4.24Z"></path><path class="cls-38" d="M344.72,247.17c-.98-.98-2.26-1.46-3.56-1.46s-2.56,.49-3.55,1.46c-1.96,1.95-1.96,5.12,0,7.08,1.96,1.95,5.13,1.95,7.11,0,1.96-1.95,1.96-5.13,0-7.08Zm-1.41,5.67c-1.19,1.18-3.09,1.18-4.27,0-1.18-1.18-1.18-3.08,0-4.24,1.18-1.18,3.09-1.18,4.27,0,1.16,1.16,1.16,3.07,0,4.24Z"></path><path class="cls-38" d="M318.04,255.69l.5,.02h7.54l-.03-.5c-.07-.83-.65-1.43-1.48-1.48l-.51-.02h-4.51l6.03-6.01-.03-.5c-.04-.83-.65-1.44-1.49-1.48l-.5-.02h-7.54l.03,.5c.07,.81,.67,1.43,1.48,1.48l.51,.02h4.51l-6.03,6.01,.03,.5c.05,.83,.65,1.43,1.49,1.48Z"></path><path class="cls-38" d="M352.44,248.7c.17,.3,.22,.63,.25,1l.03,.5v3.5l.03,.5c.05,.81,.65,1.43,1.48,1.48l.5,.02v-5.51l.03-.5c.03-.37,.08-.71,.25-1.01,.35-.6,.99-.99,1.74-.99s1.39,.4,1.74,1c.18,.3,.24,.64,.25,1l.03,.5v4.01c.07,.83,.67,1.43,1.5,1.48l.5,.02v-6.01c0-2.22-1.79-4-4.02-4-1.2,0-2.28,.52-3.01,1.35-.75-.83-1.82-1.35-3.02-1.35-.82,0-1.61,.25-2.25,.69-.38-.44-1.27-.69-1.77-.69v10.01l.5-.02c.85-.05,1.45-.65,1.49-1.48l.03-.5v-4.01c.04-.37,.09-.71,.27-1,.35-.6,.99-1,1.73-1s1.4,.4,1.74,1Z"></path><g><path class="cls-16" d="M679.77,416.89c-2.78,1.98-4.54-.47-4.54-.47,0,0-1.17-3.75-6.37-5.25,0,0,3.79,2.72,3.89,7.25,0,0-.1,1.11-.89,1.94-.79,.84-1.55,2-2.78,.74l-1.21-1.27c.19,.37,3.72,7.32,2.42,16.42-1.35,9.34-9.27,15.75-9.27,15.75l-2.91,.59-2.61,.7s-.06,.01-.09,.02l-3.5,.93s0,0-.02,.01l-3.92,1.04s-1.1-2.95,.26-8.9c.87,.33,5.85-.05,9.33-5.45,1.5-2.32,2.35-6.93-1.73-6.69-1.77,.11-4.64,2.17-5.33,2.56-1.68,.96-3.45,.55-4.08,.2-2.72-1.5-.69-5.6-.69-5.6,0,0,3.63-8.04,2.76-16.17-.44-1.83-1.11-3.11-1.83-4,0,0-1.13-1.37-2.09-2.17-.84-.69-2.27-.76-3.46-.43-2.6,.51-4.36,1.04-4.36,1.04l-2.7,1.17s-2.24,1.91-4.5,.12c0,0-1.81-2.4,.95-4.41l2.4-1.43,2.12-1.11-4.35,.25s-1.17,.39-1.7,.88c-.53,.49-3.52,2.94-3.52,2.94,0,0-.95,.62-2.32,.15l-.67-.15s-2.18,1.62-4.14,4.39c0,0-.03,.04-.09,.12-.5,.72-.98,1.51-1.41,2.38-.09,.2-.19,.4-.28,.62-.21,.46-.4,.93-.56,1.42,0,0-4.23-3.89,.7-12.1,2.43-2.88,3.34-3.14,3.34-3.14l-2.3,.65-2.74,2.01s-2.29,2.65-4.02,.11c-1.73-2.54,2.57-4.91,2.57-4.91l3.17-2.51s3.64-2.83,8.42-3.59c8.34-11.34,23.81-3.15,26.52-.9-.4-.44-3.65-4.1-4.79-8.7,0,0-.28-2.81,2.7-3.87,2.97-1.07,4.02,1.82,4.02,1.82,0,0,1.45,4.26,4.52,7.64l1.62,1.54s4.03,3.2,5.17,5.89c1.14,2.69,1.38,3.48,1.38,3.48l.5,2.33,.16,1.88s9.25-.24,13.61,7.69c0,0,2.02,2.57-.76,4.55Z"></path><path class="cls-16" d="M655.5,453.72c-.11,.21-.22,.38-.34,.51-.06,.06-.12,.15-.18,.19-.07,.02-.16-.03-.23,0-.29,.07-.57,.17-.86,.22-.29,.05-.61,.02-.91,.05-.3,.04-.6,.07-.89,.13h-.04c-.33,.08-.66-.14-.73-.47-.06-.31,.12-.61,.41-.71,.29-.09,.57-.22,.86-.34,.28-.12,.55-.3,.84-.41,.29-.11,.59-.16,.89-.24,.08,0,.14-.09,.21-.11,.08,0,.17,.05,.25,.07,.17,.05,.35,.15,.53,.28,.25,.18,.33,.52,.19,.79v.03Z"></path><path class="cls-14" d="M582.62,510.37c.08,1.01-.39,1.91-1.14,2.43-.49,.35-2.51,1.8-3.54,2.1-.02,.01-.03,.02-.05,.02,1-.46,1.78-1.54,1.68-2.72l-1.64-19.55-52.94-51.74h-.01c1.38-2.13,3.3-2.88,5.26-2.75l43.68,2.85c1.67,.11,3,1.42,3.14,3.09l1.95,23.2,2.41,28.76,1.2,14.31Z"></path><path class="cls-21" d="M655.83,434.25c-1.77,.11-4.64,2.17-5.33,2.56-1.68,.96-3.45,.55-4.08,.2-2.72-1.5-.69-5.6-.69-5.6,0,0,3.63-8.04,2.76-16.17-.44-1.83-1.11-3.11-1.83-4,0,0-1.13-1.37-2.09-2.17-.84-.69-2.27-.76-3.46-.43-2.6,.51-4.36,1.04-4.36,1.04l-2.7,1.17s-2.24,1.91-4.5,.12c0,0-1.81-2.4,.95-4.41l2.4-1.43,2.12-1.11-4.35,.25s-1.17,.39-1.7,.88c-.53,.49-3.52,2.94-3.52,2.94,0,0-.95,.62-2.32,.15l-.67-.15s-2.18,1.62-4.14,4.39c0,0-.03,.04-.09,.12-.5,.72-.98,1.51-1.41,2.38-.09,.2-.19,.4-.28,.62-.76,1.77-1.42,4.17-1.16,6.86-5.89,7.39-5.56,25.49-4.04,30.61,.12,.4,.24,.72,.37,.95,.81,1.43,4.15,2.32,8,2.88,3.17,.45,6.67,.68,9.39,.8,2.71,.11,4.63,.11,4.63,.11,0,0-6.75,6.69-9.93,5.86-2.73-.7-3.91-3.32-4.2-4.04,.17,2.85,.75,7.28,2.46,11.03,13.16-9.81,23.06-14.33,29.83-16.41l-3.92,1.04s-1.1-2.95,.26-8.9c.87,.33,5.85-.05,9.33-5.45,1.5-2.32,2.35-6.93-1.73-6.69Z"></path><path class="cls-21" d="M594.93,492.43c-.96,.31-1.86,.76-2.74,1.3-2.38,1.48-4.54,3.67-6.98,5.84-.59-.47-2.53-1.97-3.79-3.51l-2.41-28.76s1.29,.68,2.96,1.52c1.09,.56,2.34,1.19,3.49,1.75,.38,.19,.74,.37,1.09,.53,.25,1.26,.55,2.5,.88,3.71,2.69,9.88,7.5,17.62,7.5,17.62Z"></path><path class="cls-16" d="M585.39,499.7c-.17,.09-.29,.14-.36,.14l.36-.55c.04,.09,.05,.23,0,.4Z"></path><path class="cls-3" d="M602.56,459.34c0,.56-.29,1.11-.8,1.42l-16.3,9.81c-1.15-.56-2.4-1.19-3.49-1.75l18.09-10.89c.78-.47,1.79-.22,2.26,.56,.16,.27,.24,.56,.24,.85Z"></path><line class="cls-28" x1="585.46" y1="470.57" x2="585.43" y2="470.59"></line><polygon class="cls-16" points="526.89 463.02 526.88 463.03 526.88 462.98 526.88 461.92 526.88 461.87 526.89 461.88 526.89 463.02"></polygon><path class="cls-6" d="M685.45,493.07c0,29.89-34.76,66.13-44.82,70.2-3.65-1.29-12.85-6.35-13.06-6.35-.28,.97-1.78,6.09-3.8,7.7-5.31,3.04-8.86,2.43-8.86,2.43,0,0-2.8,4.07-6.14,7.41-.25-2.19-.96-4.36-2.01-6.49-1.02-2.1-2.38-4.15-3.96-6.14-1.32-1.67-2.79-3.28-4.36-4.83-.58-.57-1.16-1.13-1.76-1.68-1.72-1.6-3.53-3.12-5.33-4.53-2.31-1.83-4.62-3.49-6.77-4.93-2.23-1.52-4.29-2.81-5.99-3.82-2.8-1.69-4.61-2.63-4.61-2.63h0s-3.75-3.47-3.75-3.47l-4.26-3.95h-.01l-5.49-4.67s4.25-3.91,7.9-5.27h0s2.33-.99,4.86-1.47c-.99-.49-3-.49-4.09-.79,.86-2.26,2.12-5.22,2.12-5.22l5.36,.53c.43,.05,.84-.01,1.22-.16,.02-.01,.03-.02,.05-.02s.03-.01,.05-.02c1.03-.3,3.05-1.75,3.54-2.1,.75-.52,1.22-1.42,1.14-2.43l-1.2-14.31c1.26,1.54,3.2,3.04,3.79,3.51,2.44-2.17,4.6-4.36,6.98-5.84,.88-.54,1.78-.99,2.74-1.3,0,0-4.81-7.74-7.5-17.62,0,0,6.92-4.81,10.05-5.89,2.97-1.02,9.56-1.05,10.24-1.05h.06c-.6-8.57,3.56-14.8,3.56-14.8,.12,.4,.24,.72,.37,.95,.81,1.43,4.15,2.32,8,2.88,0,0-.1,.6-.14,1.64v.06c-.01,.26-.02,.54-.02,.85h0s.03,.09,.05,.18c.17,2.85,.75,7.28,2.46,11.03,13.16-9.81,23.06-14.33,29.83-16.41t.02-.01l3.5-.93s.06-.02,.09-.02c4.12-.91,6.52-.79,7.26-.79,11.6,.44,14.95,17.02,4.07,22.71,0,0,10.66,3.54,18.33,13.26,.2,1.51,.29,3.05,.29,4.6Z"></path><path class="cls-21" d="M524.32,497.64s-10.38,3.01-14.17,6.02c-4.95,3.37-14.06,25.78-14.56,27.03-.02,.04-.03,.06-.03,.06l-2.62-3.41-2.85-3.72s-2.03-3.33-4.01-5.73c.57,2.06,.63,6.65,.63,6.65-.3,.08-.59,.14-.85,.19-.09,.02-.17,.04-.25,.05,2.9,5.9,4.73,11.52,5.83,16.62,1.48,15.17-4.24,24.09-4.24,24.09,.55,.31,1.07,.64,1.54,.97-4.07-2.28-10.11-5.52-15.55-7.99-3.13-1.42-6.06-2.58-8.31-3.15-7.57,24.61-36.38,45.51-44.62,53.89-2.12-5.75-11.84-19.57-20.07-15.93,14.39-19.82,38.56-51.46,45.09-60,.03-.04,.07-.08,.1-.12,1.01-1.33,1.58-2.07,1.58-2.07,0,0-14.3,3.18-29.96,4.34-.56-.76-4.62-7.73-.66-22.22,31.31-8.06,77.44-24.84,90.5-25.95,2.9,1.4,5.8,2.99,8.74,4.75,2.86,1.71,5.76,3.59,8.74,5.63Z"></path><path class="cls-11" d="M608.77,574.46c-1.46,2.55-3.95,5.54-7.02,8.54-9.24,10.28-21.78,16.98-28.51,17.83-2.1-.08-10.74-3.28-11.23-3.48l-28.66-9.3c-25.56-7.26-49.3-12.5-49.3-12.5,0,0-7.17-3.54-10.86-17.08,5.44,2.47,11.48,5.71,15.55,7.99h.01c1.23,.83,2.16,1.6,2.62,2,.19,.17,.3,.27,.3,.27,0,0,3.16-11.67-.23-27.33-1.1-5.1-2.93-10.72-5.83-16.62,.08,0,.16-.03,.25-.05,.44,.17,.89,.34,1.34,.52l5.74,2.09,2.62,3.41s.01-.02,.03-.06c.5-1.25,9.61-23.66,14.56-27.03,3.79-3.01,14.17-6.02,14.17-6.02,.03,0,.12,.08,.23,.15,.13,.09,.3,.21,.5,.35,.83,.57,2.16,1.5,3.45,2.41v.02c.5,.36,.99,.72,1.49,1.09,.83,.6,1.67,1.23,2.51,1.86l10.5,8.26,17.47,15.54,5.49,4.67h.01l4.26,3.95,3.75,3.46h0s1.81,.95,4.61,2.64c1.7,1.01,3.76,2.3,5.99,3.82,2.15,1.44,4.46,3.1,6.77,4.93,1.8,1.41,3.61,2.93,5.33,4.53,.6,.55,1.18,1.11,1.76,1.68,1.57,1.55,3.04,3.16,4.36,4.83,1.58,1.99,2.94,4.04,3.96,6.14,1.05,2.13,1.76,4.3,2.01,6.49Z"></path><path class="cls-6" d="M571.26,514.57s-1.26,2.96-2.12,5.22c-.38,.98-.68,1.83-.77,2.26-3.65,1.36-7.9,5.27-7.9,5.27l-17.47-15.54,15.01,1.48,9.64,.95,3.61,.36Z"></path><path class="cls-14" d="M579.57,512.2c.1,1.18-.68,2.26-1.68,2.72-.28,.08-.51,.26-1.27,.18l-33.62-3.32-10.51-8.37-.96-10.53c2-3.68,4.2-6.7,4.2-6.7l.18-5.75,3.43-3.3s.54-3.11,.26-5.4c-.31-.37-.82-.61-1.28-.74-.06-.02-.12-.03-.18-.04-.47-.13-.84-.15-.84-.15,0,0-.9-3.52-2.25-5.14-2.01-.15-4.16,.02-6.3,.4-.45,.08-.91,.17-1.36,.27l-.51-3.88-2.53-19.43c-.1-.8,.15-1.56,.64-2.11,.52-.61,1.31-.99,2.2-.93l11.31,.74,32.37,2.12c1.66,.1,3,1.42,3.14,3.08l3.92,46.73,1.64,19.55Z"></path><path class="cls-21" d="M539.34,477.13l-3.43,3.3-.18,5.75s-2.2,3.02-4.2,6.7c-1.36,2.49-2.61,5.3-3.03,7.67-1.29-.91-2.62-1.84-3.45-2.41-.2-.14-.37-.26-.5-.35-.11-.07-.2-.14-.23-.15-2.98-2.04-5.88-3.92-8.74-5.63-1.06-12.61-3.43-19.95-3.43-19.95,0,0,0-.01,.03-.02s.04-.02,.07-.04l14.63-9.55,.51,3.88c.45-.1,.91-.19,1.36-.27,2.14-.38,4.29-.55,6.3-.4,1.35,1.62,2.25,5.14,2.25,5.14,0,0,.37,.02,.84,.15,.06,.01,.12,.02,.18,.04,.46,.13,.97,.37,1.28,.74,.28,2.29-.26,5.4-.26,5.4Z"></path><path class="cls-7" d="M420.26,609.21s-10.31,8.68-16.1,17.2c-4.52,4.96-8.61,6.6-9.88,6.1-5.03-2.93-1.14-13.68-11.14-15.98h-.01c6.12-8.55,17.06-23.25,17.06-23.25,8.23-3.64,17.95,10.18,20.07,15.93Z"></path><path class="cls-6" d="M403.98,643.54c-.24,.12-8.19,3.73-17.05,5.31-5.84,1.13-19.33,9.88-24.57,10.39-5.23,.51-15.31,1.31-27.13-5.6,.01-.04,.03-.08,.04-.11,.06-.15,.12-.29,.2-.4,1.07-2.06,9.3-6.8,18.12-9.95,7.2-5.29,27.35-26.82,27.35-26.82l2.19,.17h.01c10,2.3,6.11,13.05,11.14,15.98,1.27,.5,5.36-1.14,9.88-6.1,0,0,.47,9.87-.18,17.13Z"></path><path class="cls-3" d="M403.98,643.54c-.24,2.69-.63,5.02-1.26,6.36-.85,1.8-14,3.95-18.69,5.83-4.7,1.88-7.84,8.14-22.64,10.09-9.15,1.21-17.03-1.06-21.72-2.96-2.89-1.17-4.56-2.21-4.56-2.21,0,0-.59-4.94,.12-7.01,11.82,6.91,21.9,6.11,27.13,5.6,5.24-.51,18.73-9.26,24.57-10.39,8.86-1.58,16.81-5.19,17.05-5.31Z"></path><path class="cls-3" d="M357.1,484c-4.91,0-8.22,1.66-8.22,1.66-4.2,3.85-1.64,37.31,4.59,44.23,1.3,1.63,3.84,2.92,5.66,5.38,3.16,4.27,3.75,7.51,5.35,9.53,.92,1.11,8.74-.85,8.74-.85"></path><path class="cls-16" d="M403.99,643.59v.43s0-.03,0-.03c0-.01,0,.02,0,.05,0,0,0-.02,0-.1v-.8c0-.08,0-.11,0-.1,0,.03,0,.06,0,.05v-.03s0,.43,0,.43v.1Z"></path><path class="cls-7" d="M417,535.43c-5.97,.87-20.84,.89-20.84,.89,0,0-.45,0-1.12-.06-1.89-.15-5.53-.73-5.53-2.98,0-3.04,6.86-5.83,8.56-7.44,1.7-1.59,4.57-5.34,2.18-9.69-.02-.04-.04-.07-.06-.11,5.5,0,16.15-2.83,16.15-2.83-3.96,14.49,.1,21.46,.66,22.22Z"></path><path class="cls-6" d="M398.07,525.84c-1.7,1.61-8.56,4.4-8.56,7.44,0,2.25,3.64,2.83,5.53,2.98h0c-3.03,2.4-6.99,4.17-10.7,5.4-4.92,1.63-9.41,2.34-10.75,2.34-.18,0-.31-.02-.37-.04-2.04-1.6-4.24-5.55-5.94-8.79-1.17-2.24-2.12-4.13-2.61-4.68-1.2-1.34-4.37-2.76-5.3-4.71-5.7-12.38-7.57-35.68-2.27-41.78,3.34,3.54,8.26,11.11,15.04,17.01,6.78,5.89,20.84,9.92,28.05,15.03,.02,.04,.04,.07,.06,.11,2.39,4.35-.48,8.1-2.18,9.69Z"></path><path class="cls-16" d="M489.01,598.84c-5.65,1.33-11.26,2.77-16.83,4.39l-8.35,2.42c-2.78,.8-5.56,1.64-8.32,2.52h0c-.07,.03-.15,.02-.22,0-1.34-.45-2.66-.93-3.97-1.47-1.3-.55-2.6-1.12-3.79-1.97l.47-.37c.58,1.32,1.63,2.45,2.74,3.46,1.12,1.01,2.35,1.91,3.62,2.71h0c.1,.06,.13,.19,.08,.29-.05,.08-.15,.12-.24,.1-1.67-.44-3.33-.91-4.99-1.4-.83-.25-1.65-.5-2.47-.78-.82-.28-1.64-.55-2.44-.95h0s.29-.31,.29-.31c.73,1.15,1.7,2.16,2.78,3.01,1.08,.85,2.28,1.6,3.53,2.18h0c.07,.03,.1,.11,.07,.18-.03,.07-.11,.1-.18,.07-1.3-.57-2.51-1.3-3.64-2.15-1.12-.85-2.14-1.87-2.93-3.06-.07-.1-.04-.23,.06-.3,.07-.04,.15-.05,.21-.01h.01s0,0,0,0c.74,.37,1.56,.65,2.37,.93,.81,.27,1.64,.53,2.46,.77,1.65,.49,3.31,.96,4.97,1.4l-.16,.39h0c-1.32-.79-2.58-1.68-3.75-2.68-1.16-1.01-2.27-2.14-2.96-3.61-.07-.15,0-.34,.15-.41,.1-.05,.22-.03,.31,.03h.01c.55,.39,1.16,.71,1.78,1.01,.62,.3,1.26,.58,1.9,.83,1.29,.52,2.61,.99,3.93,1.41h-.23c2.74-.95,5.5-1.87,8.27-2.75,2.77-.88,5.58-1.63,8.39-2.38,5.63-1.44,11.29-2.74,16.98-3.92,.12-.02,.23,.05,.25,.17,.02,.11-.05,.22-.16,.25Z"></path><path class="cls-16" d="M542.68,591.59c-4.03-.08-8.07,.14-12.1,.49-4.03,.34-8.04,.85-12.04,1.46-4,.61-7.99,1.27-11.96,2.01-3.98,.73-7.96,1.44-11.92,2.26h0c-.05,.01-.11,.01-.16,0-2.27-.54-4.51-1.16-6.72-1.89-2.21-.74-4.41-1.54-6.45-2.71l.32-.35c1.32,1.84,3.22,3.23,5.19,4.38,1.99,1.14,4.08,2.12,6.24,2.92,.07,.02,.11,.1,.08,.17-.02,.07-.1,.1-.17,.09-1.12-.34-2.19-.77-3.26-1.23-1.07-.46-2.11-.98-3.11-1.58-2-1.18-3.91-2.59-5.36-4.47-.08-.1-.06-.25,.04-.34,.08-.06,.18-.06,.26-.02h.01c2.01,1.09,4.21,1.83,6.41,2.51,2.21,.66,4.45,1.23,6.7,1.72h-.17c3.96-.87,7.92-1.73,11.92-2.43,3.99-.7,8-1.35,12.02-1.88,4.02-.52,8.05-.99,12.1-1.35,4.04-.35,8.1-.56,12.17-.54,.21,0,.38,.17,.38,.39s-.17,.38-.39,.38c0,0,0,0,0,0Z"></path><g><path class="cls-16" d="M648.23,446.3c.87,.33,5.85-.05,9.33-5.45,1.49-2.32,2.35-6.93-1.73-6.68-1.77,.11-4.64,2.16-5.33,2.56-1.68,.95-3.44,.55-4.08,.2-2.72-1.5-.69-5.6-.69-5.6,0,0,3.63-8.04,2.76-16.18-.43-1.83-1.11-3.1-1.83-4,0,0-1.13-1.37-2.09-2.17-.84-.69-2.27-.76-3.46-.43-2.6,.52-4.36,1.04-4.36,1.04l-2.7,1.17s-2.24,1.91-4.5,.12c0,0-1.81-2.4,.95-4.41l2.4-1.43,2.12-1.11-4.35,.25s-1.17,.39-1.7,.88c-.53,.49-3.52,2.95-3.52,2.95,0,0-.95,.62-2.32,.14l-.67-.14s-4.67,3.47-6.48,8.93c0,0-4.23-3.89,.7-12.1,2.43-2.88,3.34-3.14,3.34-3.14l-2.3,.65-2.74,2.01s-2.29,2.65-4.02,.11c-1.73-2.54,2.57-4.91,2.57-4.91l3.17-2.51s3.64-2.82,8.42-3.59c8.37-11.39,23.96-3.07,26.56-.86,0,0-3.61-3.83-4.83-8.74,0,0-.28-2.81,2.7-3.87,2.97-1.06,4.02,1.83,4.02,1.83,0,0,1.45,4.26,4.52,7.64l1.62,1.54s4.03,3.2,5.17,5.89c1.14,2.69,1.38,3.48,1.38,3.48l.5,2.33,.16,1.88s9.25-.24,13.61,7.69c0,0,2.02,2.57-.76,4.55-2.78,1.98-4.54-.48-4.54-.48,0,0-1.17-3.74-6.37-5.25,0,0,3.79,2.73,3.89,7.26,0,0-.1,1.11-.89,1.94-.79,.83-1.55,2-2.78,.74l-1.22-1.28s3.77,7.08,2.43,16.43c-1.35,9.35-9.27,15.76-9.27,15.76l-2.91,.59-10.15,2.7s-1.09-2.95,.26-8.9Z"></path><path class="cls-35" d="M613.87,482.6c22.59-8.93,53.51-7.82,53.51-7.82"></path><path class="cls-16" d="M611.34,452.98c-1.08,2.43-1.84,4.94-2.29,7.48-.45,2.54-.6,5.12-.31,7.65,.02,.64,.13,1.26,.25,1.89,.13,.62,.18,1.26,.38,1.87l.5,1.85c.19,.61,.45,1.19,.67,1.8,.4,1.23,1.06,2.34,1.6,3.51,.59,1.16,1.34,2.22,1.96,3.4l.02,.04c.07,.13,.02,.3-.12,.37-.11,.06-.25,.03-.34-.06-.88-1-1.8-2-2.58-3.1-.7-1.15-1.52-2.25-2.03-3.52-1.24-2.44-1.86-5.16-2.11-7.88-.02-.68-.11-1.37-.07-2.05,.03-.68,.05-1.37,.1-2.05l.31-2.02c.13-.67,.31-1.32,.48-1.98,.74-2.6,1.92-5.09,3.58-7.18Z"></path><path class="cls-16" d="M619.97,457.95c.1,2.13,.42,4.25,.86,6.32,.46,2.07,1.1,4.09,1.99,5.96l-1.27-.32c1.27-.96,2.53-1.95,3.82-2.89,1.29-.94,2.67-1.76,3.99-2.65,2.67-1.75,5.4-3.41,8.21-4.95,1.39-.8,2.85-1.47,4.27-2.21,1.46-.66,2.9-1.37,4.4-1.95,2.96-1.25,6.04-2.23,9.21-2.91,1.59-.31,3.19-.59,4.83-.68,.81-.05,1.64-.06,2.45-.04,.85,.05,1.7,.16,2.52,.37,3.31,.8,6.16,3.15,7.7,6.13,1.56,2.96,1.97,6.53,1.01,9.75-.91,3.25-3.34,5.96-6.29,7.46h0c-.3,.16-.67,.04-.83-.27-.15-.3-.03-.67,.26-.82,2.68-1.41,4.8-3.83,5.59-6.74,.83-2.88,.43-6.09-.99-8.71-.69-1.33-1.68-2.48-2.84-3.41-1.16-.92-2.54-1.54-3.97-1.88-.36-.1-.73-.13-1.09-.2-.37-.04-.73-.06-1.1-.08-.78,0-1.54,.02-2.31,.08-1.53,.11-3.06,.41-4.58,.72-3.03,.71-6,1.71-8.89,2.92-1.46,.57-2.87,1.27-4.3,1.91-1.39,.73-2.82,1.39-4.18,2.17-2.76,1.51-5.46,3.14-8.09,4.87-2.61,1.77-5.17,3.61-7.8,5.36l-.88,.59-.39-.91c-.88-2.08-1.42-4.24-1.76-6.42-.34-2.18-.46-4.37-.4-6.56,0-.23,.2-.41,.43-.4,.22,0,.39,.19,.4,.4Z"></path><path class="cls-18" d="M627.61,556.68s-1.6,6.08-3.84,7.86c0,0-.71-6.29-8.84-16.5,4.29,3.23,8.61,6.17,12.68,8.64Z"></path><path class="cls-16" d="M665.95,474.54c1.92,.62,3.77,1.39,5.59,2.26,1.81,.87,3.57,1.86,5.27,2.95,1.71,1.08,3.34,2.29,4.89,3.61,1.58,1.3,2.98,2.79,4.35,4.32h0s.19,.23,.19,.23l.04,.33c.96,7.8-.67,15.57-3.26,22.74-2.61,7.22-6.3,13.95-10.46,20.32-4.18,6.37-8.9,12.35-14.04,17.96-2.58,2.8-5.26,5.5-8.11,8.04-1.42,1.28-2.9,2.49-4.43,3.65-1.54,1.15-3.14,2.25-5.02,3.07h0s-.27,.12-.27,.12l-.32-.09h0c-.79-.24-1.39-.53-2.06-.82-.65-.29-1.3-.59-1.94-.89-1.28-.61-2.53-1.26-3.78-1.92-2.49-1.33-4.94-2.73-7.33-4.24l.62-1.03c2.41,1.39,4.89,2.69,7.4,3.9,1.25,.61,2.52,1.19,3.79,1.75,.64,.28,1.28,.54,1.92,.8,.62,.26,1.33,.48,1.86,.71h0s-.58,.03-.58,.03h0c1.58-.69,3.13-1.75,4.6-2.86,1.47-1.13,2.91-2.32,4.29-3.58,2.78-2.5,5.41-5.17,7.94-7.95,5.04-5.56,9.67-11.49,13.75-17.78,4.05-6.29,7.64-12.92,10.13-19.94,2.48-6.98,3.98-14.44,3.03-21.72l.24,.56h0c-1.17-1.53-2.39-3.04-3.8-4.38-1.38-1.37-2.87-2.65-4.44-3.82-1.57-1.18-3.21-2.27-4.92-3.25-1.71-.98-3.48-1.88-5.31-2.62l.16-.47Z"></path><path class="cls-16" d="M603.27,500.02c-1.95,.52-3.87,1.28-5.71,2.15-1.84,.88-3.6,1.91-5.26,3.08-1.65,1.18-3.2,2.5-4.58,3.97-1.39,1.46-2.59,3.1-3.61,4.83h0s-.09-.73-.09-.73h0s.08,.08,.08,.08l.06,.14h0c.96,2.23,2.34,4.31,3.77,6.33,1.45,2.01,3.04,3.94,4.68,5.82,3.26,3.77,6.76,7.35,10.36,10.82,3.63,3.44,7.34,6.8,11.22,9.95,1.94,1.58,3.89,3.14,5.89,4.63,1,.75,2.01,1.48,3.03,2.2l1.54,1.06,.78,.52,.39,.26,.19,.13,.1,.06,.05,.03,.02,.02s.03-.02,0,.04l-.56,.9-.59,.88c-.04,.06-.02,.01-.03,.02l-.02-.02-.05-.03-.1-.06-.2-.13-.4-.26-.8-.52-1.58-1.06c-1.05-.72-2.08-1.45-3.11-2.2-2.05-1.5-4.06-3.03-6.03-4.64-3.92-3.21-7.72-6.57-11.32-10.13-3.62-3.54-7.07-7.27-10.27-11.21-1.58-1.99-3.11-4.02-4.51-6.16-1.4-2.13-2.69-4.36-3.55-6.83h0s.14,.22,.14,.22h0s-.34-.36-.34-.36l.25-.38h0c1.12-1.78,2.42-3.45,3.9-4.93,1.47-1.49,3.11-2.8,4.84-3.96,1.73-1.16,3.57-2.15,5.46-2.99,1.9-.84,3.85-1.54,5.88-2.03l.11,.49Z"></path><path class="cls-16" d="M581.79,501.93c2.43-1.79,4.57-3.94,6.84-5.98,1.14-1.01,2.34-1.99,3.68-2.79,1.33-.8,2.82-1.41,4.39-1.63l.24-.03,.15,.21c4.23,6.09,9.43,11.47,15,16.37,5.57,4.91,11.52,9.39,17.66,13.55l-1.32,1.89c-3-2.25-5.9-4.65-8.81-7.01-2.9-2.38-5.72-4.86-8.44-7.44-2.73-2.57-5.31-5.29-7.83-8.07-2.51-2.78-5.05-5.56-7.23-8.64l.74,.33c-1.4,.16-2.75,.66-4.01,1.37-1.27,.71-2.45,1.62-3.6,2.59-2.29,1.94-4.51,4.09-7.09,5.77l-.36-.48Z"></path><path class="cls-35" d="M648.27,500.36c-.51,2.51-1.08,4.85-1.7,7.01"></path><path class="cls-16" d="M651.94,496.69c1.07-1.99,2.47-3.77,3.93-5.48h0c.06-.06,.15-.07,.21-.01,.05,.04,.06,.11,.04,.16h0c-.41,1.26-.76,2.55-.98,3.84h0s-.31-.16-.31-.16c1.58-1.61,3.27-3.12,5.11-4.45,1.84-1.33,3.88-2.38,6.03-3.13,4.31-1.48,8.88-1.8,13.37-1.93,.05,0,.1,.04,.1,.1,0,.05-.04,.1-.09,.1-4.47,.27-9.01,.63-13.23,2.14-2.1,.75-4.07,1.84-5.89,3.12-1.83,1.28-3.48,2.8-5.14,4.32h0c-.07,.08-.19,.07-.26,0-.04-.04-.06-.1-.05-.16h0c.24-1.33,.62-2.61,1.06-3.88l.26,.15h0c-1.48,1.67-2.91,3.41-4.01,5.36-.02,.04-.07,.06-.12,.04-.04-.02-.06-.07-.04-.12Z"></path><path class="cls-35" d="M647.35,510.98c12.43,23.28,19.74,26.4,19.74,26.4"></path><path class="cls-16" d="M585.67,510.6c-1.43-1.86-2.74-3.79-3.93-5.8l.79-.51c1.34,1.91,2.57,3.9,3.68,5.96l-.54,.35Z"></path><path class="cls-35" d="M592.16,493.59c1.72,3.54,5.32,8.25,5.32,8.25"></path><line class="cls-35" x1="587.98" y1="497.12" x2="593.01" y2="504.27"></line><path class="cls-35" d="M543.21,511.72l33.41,3.3c1.67,.17,3.09-1.23,2.95-2.9l-5.56-66.27c-.14-1.67-1.48-2.98-3.15-3.09l-43.68-2.85c-1.69-.11-3.06,1.35-2.84,3.03l3.01,23.01"></path><path class="cls-16" d="M577.82,514.6c1.16-.43,2.26-1.28,3.33-2.04,.53-.35,.87-.83,1.03-1.4,.08-.28,.1-.57,.07-.86l-.09-1-.73-7.99-1.34-15.98-2.64-31.97-.66-7.99c-.07-.66-.07-1.37-.22-1.91-.16-.57-.5-1.08-.96-1.46-.46-.37-1.02-.63-1.61-.68l-1.99-.14-16-1.07-16-1.09-8-.55c-1.34-.07-2.67-.31-3.88,.12-1.22,.38-2.23,1.27-2.93,2.36l-.42-.27c.74-1.16,1.84-2.15,3.18-2.59,.67-.22,1.37-.31,2.07-.29l2.01,.12,8,.49,16.01,1,16.01,1.03,2.01,.13c.74,.06,1.46,.38,2.03,.85,.57,.48,1,1.12,1.21,1.84,.2,.75,.17,1.39,.25,2.06l.68,7.99,2.72,31.96,1.33,15.98,.61,8,.07,1c.03,.37,0,.76-.12,1.12-.2,.73-.74,1.36-1.34,1.73-.55,.38-1.12,.75-1.7,1.1-.59,.34-1.16,.69-1.87,.9l-.13-.48Z"></path><line class="cls-35" x1="538.5" y1="440.64" x2="567.65" y2="514.13"></line><path class="cls-16" d="M617.72,419.51c.92-.09,1.7-.17,2.46-.18,.38,0,.75,.02,1.12,.06,.38,.04,.77,.11,1.18,.11l-.11,.14h0c-.3,.04-.18-.02-.22-.05l-.04-.09-.08-.18-.17-.35c-.12-.23-.26-.45-.43-.63-.33-.37-.84-.53-1.29-.49-.45,.06-.9,.31-1.31,.65-.2,.18-.4,.37-.58,.57l-.27,.32-.13,.16-.06,.08-.03,.04s-.02,.03,0,0c.02-.05,.01-.13-.03-.17Zm-.35,.21c-.03-.05-.03-.16,0-.22l.02-.04,.02-.05,.05-.1,.1-.2c.07-.13,.15-.26,.23-.39,.17-.25,.35-.5,.57-.72,.43-.44,1.01-.84,1.72-.89,.71-.03,1.37,.29,1.83,.76,.23,.23,.43,.49,.57,.78,.07,.14,.14,.29,.18,.44,.03,.07,.05,.15,.06,.23l.03,.12s.12,.06-.17,.17h0s.02,.14,.02,.14h-.13c-.42,0-.84,.07-1.29,.11-.44,.05-.9,.07-1.34,.06-.89-.01-1.75-.09-2.48-.18Z"></path><path class="cls-16" d="M634.34,419.62c.99,.54,1.91,1.06,2.82,1.59,.9,.54,1.78,1.09,2.65,1.73l-.33,.15h0c.02-.62-.16-1.28-.47-1.83-.3-.55-.78-1.02-1.25-1.38-.48-.33-1.09-.5-1.72-.47-.31,0-.63,.06-.95,.14-.16,.04-.31,.09-.47,.14l-.23,.08-.11,.05-.05,.02h-.03c.07-.01,.15-.15,.14-.23Zm-.6-.02c0-.09,.1-.24,.19-.27l.03-.02,.06-.03,.12-.06,.25-.11c.17-.07,.34-.13,.51-.18,.35-.11,.71-.18,1.08-.21,.73-.07,1.55,.07,2.21,.52,.64,.46,1.09,1.05,1.39,1.74,.29,.69,.42,1.42,.32,2.18h0s-.02,.32-.02,.32l-.31-.16c-1.01-.54-2.02-1.16-3.01-1.79-.97-.64-1.94-1.3-2.84-1.93Z"></path><path class="cls-16" d="M636.31,426.93c-.11,.44-.25,.88-.45,1.3-.1,.21-.22,.42-.38,.62-.16,.18-.4,.44-.86,.36-.44-.16-.49-.51-.56-.73-.05-.25-.06-.49-.06-.72,.01-.47,.07-.92,.17-1.37,.1-.45,.26-.88,.46-1.31,.1-.21,.22-.43,.39-.63,.17-.17,.38-.48,.92-.41,.51,.19,.53,.57,.61,.8,.06,.26,.07,.5,.06,.74,0,.48-.17,.92-.28,1.36Zm-.48-.12c.1-.41,.08-.84,.08-1.24,0-.2-.02-.4-.06-.57-.03-.18-.17-.28-.11-.23,.08-.02-.09,.02-.2,.15-.12,.13-.24,.29-.34,.46-.2,.35-.35,.75-.46,1.15-.11,.4-.19,.82-.19,1.23,0,.2,.02,.41,.06,.59,.03,.18,.15,.32,.15,.3,0,0,.13-.07,.26-.21,.13-.13,.24-.3,.34-.47,.21-.35,.36-.75,.47-1.16Z"></path><path class="cls-16" d="M619.86,424.94c-.12,.44-.27,.87-.48,1.28-.11,.21-.23,.41-.39,.6-.08,.1-.17,.19-.3,.28-.12,.08-.31,.18-.55,.12-.24-.08-.34-.26-.39-.38-.06-.14-.08-.26-.09-.38-.03-.24,0-.47,0-.7,.05-.45,.09-.89,.16-1.33,.07-.44,.17-.89,.36-1.31,.1-.21,.2-.43,.36-.63,.08-.1,.17-.2,.3-.3,.12-.09,.32-.21,.61-.15,.28,.08,.4,.28,.46,.42,.07,.15,.09,.28,.12,.41,.05,.25,.05,.49,.04,.72-.02,.47-.1,.91-.2,1.35Zm-.68-.17c.1-.4,.17-.81,.18-1.21,0-.2,0-.4-.03-.57,0-.18-.18-.31-.07-.23,.13-.02-.07,.03-.16,.17-.11,.13-.23,.3-.33,.47-.19,.35-.38,.73-.52,1.12-.14,.4-.24,.81-.22,1.23,0,.21,.03,.41,.09,.6,.03,.18,.19,.35,.16,.29-.05,.01,.12-.08,.21-.23,.11-.14,.21-.32,.29-.5,.17-.36,.3-.76,.39-1.16Z"></path><path class="cls-16" d="M626.02,421.52c.44,.11,.57,.3,.64,.5,.04,.21,0,.44-.32,.75-.44-.11-.58-.29-.64-.5-.04-.21,0-.44,.32-.75Z"></path><path class="cls-16" d="M625.75,424.28c-.29,1.45-.71,2.87-1.26,4.23l-.85,2.03-.82,2.05-.15,.39-.4-.23h0c-.5-.25-1.05-.54-1.51-.67h0s.63-.52,.63-.52c.16,.88,.24,1.76,.34,2.66l.3,2.69c.01,.08-.05,.15-.12,.16-.06,0-.13-.03-.15-.09-.37-.85-.65-1.72-.88-2.61-.24-.89-.42-1.79-.46-2.71l-.04-.77,.66,.25h0c.67,.24,1.15,.59,1.65,.98h0s-.56,.16-.56,.16c.35-.64,.64-1.31,.95-1.97,.3-.67,.55-1.35,.81-2.04,.53-1.36,1.12-2.69,1.77-4.02,.01-.03,.04-.04,.07-.02,.02,.01,.03,.03,.03,.06Z"></path><path class="cls-16" d="M617.25,441.77c.95,.24,1.91,.4,2.87,.53,.96,.13,1.93,.25,2.9,.33,1.93,.21,3.88,.31,5.83,.51-1.95,.16-3.92,.08-5.87-.08-.97-.11-1.95-.22-2.91-.43-.96-.2-1.92-.45-2.81-.85Z"></path><path class="cls-16" d="M618.42,445.55c.63,.04,1.22,.13,1.82,.19,.6,.1,1.2,.15,1.81,.33-.62,.17-1.24,.14-1.87,.09-.61-.1-1.25-.23-1.77-.61Z"></path><path class="cls-16" d="M643.26,449.41c.8-.86,1.47-1.81,1.99-2.85,.54-1.02,.89-2.14,1.24-3.22l.37,.09h0c-.14,.6-.15,1.27,.07,1.82,.11,.28,.29,.51,.52,.69,.22,.19,.52,.28,.81,.36l-.09,.42c-.34-.1-.69-.21-.98-.45-.29-.23-.52-.53-.64-.87-.25-.69-.22-1.39-.06-2.08h0c0-.11,.09-.19,.19-.19s.19,.09,.19,.19v.03s-.01,.06-.01,.06c-.22,1.19-.77,2.25-1.37,3.27-.3,.51-.64,.99-1.01,1.45-.36,.47-.8,.87-1.23,1.26Z"></path><path class="cls-16" d="M641.55,450.36c.07,.38-.08,.72-.22,1.04-.19,.3-.37,.59-.71,.78,.04-.38,.2-.68,.33-.98,.18-.29,.33-.57,.6-.84Z"></path><path class="cls-18" d="M654.26,442.45s-.6-3.09-3.3-3.57c1.4-1.09,3.87-2.7,5.45-1.94,2.31,1.11-2.15,5.51-2.15,5.51Z"></path><path class="cls-28" d="M650.96,438.88c-.65,.51-1.07,.9-1.07,.9"></path><path class="cls-28" d="M619.56,459.71c1.86,5.15,5.66,8.57,5.66,8.57"></path><g><path class="cls-16" d="M633.73,457.73s-6.75,6.69-9.93,5.86c-3.07-.79-4.18-4-4.25-4.21h0c0-1.61,.16-2.56,.16-2.56,3.17,.45,6.67,.68,9.39,.8,2.71,.11,4.63,.11,4.63,.11Z"></path><path class="cls-16" d="M633.82,457.69c0,.07-.1,.2-.13,.21l-.1,.1-.21,.19-.42,.38-.85,.75c-.57,.49-1.15,.98-1.74,1.44-1.2,.92-2.43,1.79-3.8,2.46-.68,.34-1.42,.6-2.22,.64-.2-.02-.41-.03-.61-.05l-.56-.17c-.37-.14-.73-.3-1.06-.52-1.33-.87-2.21-2.22-2.76-3.67v-.03s-.01-.04-.01-.04h0c-.05-.43-.09-.87-.12-1.3-.03-.44-.05-.87-.03-1.34h0s.08-.56,.08-.56l.52,.11c2.28,.49,4.6,.81,6.93,1.03,1.17,.1,2.32,.23,3.52,.26,1.18,.06,2.36,.08,3.59,.1Zm-.18,.08c-1.11-.03-2.28-.06-3.44-.06-1.15,0-2.33-.01-3.5-.05-2.35-.07-4.7-.15-7.06-.31l.59-.43h0c-.11,.38-.2,.8-.28,1.21-.08,.41-.14,.83-.19,1.26h0s-.01-.06-.01-.06c.49,1.36,1.44,2.6,2.63,3.38,.59,.37,1.3,.72,1.97,.75,.7,.01,1.43-.18,2.11-.46,1.38-.57,2.61-1.46,3.81-2.36,.6-.45,1.17-.94,1.74-1.42,.28-.25,.56-.5,.83-.76l.41-.39,.2-.2,.1-.1c.05-.06,0,0,.08,0Z"></path></g><path class="cls-16" d="M619.55,457.87c-1.72-.36-3.44-.76-5.14-1.36-.85-.31-1.7-.68-2.51-1.31-.2-.16-.39-.36-.57-.58-.08-.12-.17-.25-.23-.37l-.13-.35-.25-.7-.14-.67c-.34-1.76-.52-3.49-.61-5.23-.09-1.74-.15-3.47-.07-5.21,.04-1.74,.23-3.46,.37-5.19,.19-1.72,.5-3.44,.85-5.13,.77-3.37,1.93-6.75,4.08-9.54l-.05,.16c-.15-1.8,.13-3.61,.64-5.32,.26-.86,.6-1.68,.99-2.49,.41-.79,.83-1.58,1.36-2.32l.34,.26c-1.09,1.36-1.86,2.98-2.39,4.65-.53,1.67-.69,3.45-.5,5.18v.08s-.05,.08-.05,.08c-1.99,2.75-3.03,6.09-3.68,9.42-.3,1.68-.55,3.37-.69,5.07-.12,.85-.16,1.7-.19,2.55-.05,.85-.06,1.71-.06,2.56-.02,3.4,.12,6.87,.83,10.12l.14,.6,.2,.52,.1,.26c.04,.07,.08,.12,.12,.19,.1,.12,.22,.24,.37,.35,.58,.44,1.36,.77,2.14,1.03,1.58,.51,3.26,.83,4.94,1.09l-.23,1.59Z"></path><path class="cls-16" d="M607.77,468.4c-1.81,0-3.65,.08-5.45,.23-1.79,.18-3.64,.35-5.2,1.01-1.61,.71-3.19,1.65-4.75,2.61-1.55,.96-3.08,1.97-4.58,3.01l-.73-1.05c1.53-1.05,3.07-2.06,4.65-3.03,1.59-.96,3.17-1.91,4.93-2.68,1.85-.76,3.74-.9,5.58-1.09,1.86-.15,3.7-.22,5.57-.22v1.22Z"></path><path class="cls-16" d="M579.27,466.7c2.48,1.32,4.98,2.62,7.5,3.85l.23,.11,.06,.25c.41,1.85,.85,3.71,1.43,5.52,.56,1.82,1.2,3.61,1.91,5.38,.71,1.77,1.48,3.51,2.32,5.22,.84,1.71,1.73,3.4,2.71,5.01l-.96,.6c-1.01-1.68-1.9-3.38-2.74-5.12-.84-1.74-1.62-3.51-2.33-5.3-.72-1.79-1.36-3.62-1.92-5.47-.58-1.84-1.02-3.73-1.43-5.62l.28,.36c-2.56-1.21-5.07-2.49-7.58-3.79l.52-1Z"></path><path class="cls-16" d="M581.41,495.93c1.29,1.28,2.73,2.37,4.17,3.42l-.39,.53c-.73-.57-1.38-1.2-2.03-1.84-.62-.67-1.24-1.34-1.75-2.1Z"></path><path class="cls-16" d="M590.86,484.78c.6-.8,1.29-1.5,1.98-2.19,.73-.66,1.45-1.33,2.24-1.91-1.31,1.45-2.6,2.92-3.74,4.46l-.49-.36Z"></path><path class="cls-28" d="M581.97,468.74l18.09-10.89c.78-.47,1.79-.22,2.26,.56h0c.47,.78,.22,1.8-.56,2.27l-16.33,9.83"></path><path class="cls-28" d="M597.08,459.64c1.25,0,2.18,1.93,1.86,2.73"></path><path class="cls-16" d="M515.02,491.98c-.29-3.35-.7-6.69-1.25-10.01-.28-1.66-.59-3.31-.94-4.95-.35-1.64-.76-3.28-1.22-4.86h0s-.13-.43-.13-.43l.36-.24,14.76-9.57,.58,.88-14.71,9.65,.23-.66h0c.52,1.66,.89,3.3,1.26,4.97,.36,1.66,.67,3.33,.95,5.01,.54,3.35,.96,6.72,1.24,10.1l-1.13,.1Z"></path><path class="cls-16" d="M512.15,471.98c3.52-1.93,7.2-3.55,11.02-4.83,3.81-1.24,7.81-2.19,11.92-1.99h.15l.14,.15c.7,.76,1.15,1.65,1.5,2.54,.33,.9,.69,1.8,.63,2.81h0s-.19-.15-.19-.15c.45,.03,.88,.1,1.31,.23,.42,.14,.86,.34,1.2,.72h0s.05,.05,.05,.05l.02,.1c.14,.92,.16,1.85,.14,2.76-.03,.92-.09,1.83-.21,2.75h0s-.03,.17-.03,.17l-.11,.1-3.57,3.15h0s.09-.19,.09-.19l.29,5.76h0s0,.17,0,.17l-.11,.19c-.41,.69-.83,1.39-1.26,2.07l-1.28,2.06-2.6,4.1-.73-.4c.71-1.47,1.45-2.92,2.21-4.36,.77-1.43,1.57-2.85,2.38-4.26l-.11,.37h0s.65-5.74,.65-5.74v-.13s.09-.06,.09-.06h0s3.29-3.45,3.29-3.45l-.14,.26h0c.33-1.73,.57-3.53,.45-5.28l.07,.15h0c-.44-.55-1.31-.81-2.09-.91l-.13-.02-.06-.14h0c-.45-.84-.83-1.69-1.26-2.5-.43-.8-.93-1.58-1.46-2.14l.6,.31h0c-3.82-.4-7.8,.3-11.63,1.32-3.84,1.06-7.59,2.48-11.21,4.21Z"></path><path class="cls-16" d="M522.69,472.35c2.44-1.06,5.08-1.59,7.71-1.9,1.32-.14,2.64-.23,3.97-.22,1.34,.02,2.65,.04,4.01,.45l-.13,.47c-.6-.04-1.26-.03-1.91,.02l-1.95,.11c-1.3,.09-2.6,.18-3.9,.29-2.6,.2-5.18,.48-7.82,.8Z"></path><path class="cls-16" d="M528.75,465.98c.43,1.44,1.53,2.47,2.78,3.18,.62,.38,1.29,.67,1.97,.93,.68,.26,1.38,.5,2.11,.63-.75,.05-1.49-.13-2.21-.32-.72-.21-1.41-.51-2.08-.88-.64-.4-1.26-.87-1.73-1.47-.47-.6-.79-1.33-.84-2.07Z"></path><path class="cls-18" d="M608.77,574.38c-1.57,2.74-4.32,5.97-7.69,9.2,0,0,3.29-15.69-2.64-26.66,1.57,1.55,3.04,3.16,4.36,4.83,1.58,1.99,2.94,4.04,3.96,6.14,1.05,2.13,1.76,4.3,2.01,6.49Z"></path><path class="cls-16" d="M571.81,514.72l-1.69,3.63-.81,1.83c-.26,.61-.52,1.23-.71,1.84h0s-.04,.13-.04,.13l-.12,.05c-1.38,.61-2.65,1.45-3.86,2.37-1.2,.92-2.37,1.93-3.43,2.97h0s0-1.03,0-1.03l12.98,12.62h0s-.05-.04-.05-.04c4.45,2.4,8.72,5.09,12.85,8.01,2.07,1.45,4.07,2.99,6.03,4.58,1.96,1.59,3.83,3.3,5.65,5.06l-.35,.35c-1.8-1.75-3.66-3.44-5.61-5.02-1.95-1.58-3.94-3.12-6-4.56-4.1-2.9-8.37-5.59-12.79-7.97l-.03-.02-.03-.02h0s-13.59-11.96-13.59-11.96l-.58-.51,.58-.53h0c1.24-1.01,2.5-1.9,3.84-2.73,1.33-.82,2.73-1.55,4.23-2.05l-.16,.18h0c.15-.69,.36-1.32,.56-1.97l.65-1.91,1.37-3.79,1.1,.47Z"></path><path class="cls-35" d="M623.77,564.54c-5.31,3.04-8.86,2.43-8.86,2.43,0,0-2.8,4.07-6.14,7.41"></path><path class="cls-35" d="M565.96,531.91c.54,0,1.92,.08,2.28,.13,25.4,3.38,47.08,30.96,46.67,34.93"></path><line class="cls-35" x1="612.39" y1="561.75" x2="606.76" y2="567.89"></line><line class="cls-35" x1="608.12" y1="556.3" x2="602.8" y2="561.75"></line><line class="cls-35" x1="602.28" y1="550.23" x2="596.68" y2="555.23"></line><line class="cls-35" x1="596.25" y1="545.03" x2="591.35" y2="550.7"></line><line class="cls-35" x1="589.45" y1="540.22" x2="584.58" y2="545.77"></line><line class="cls-35" x1="583.22" y1="536.75" x2="578.59" y2="541.95"></line><line class="cls-35" x1="577.97" y1="534.5" x2="573.97" y2="539.32"></line><line class="cls-35" x1="573.06" y1="532.97" x2="570.23" y2="535.86"></line><path class="cls-18" d="M491.67,568.65s-1.9-1.77-4.47-3.24c0,0,5.72-8.92,4.24-24.09,3.39,15.66,.23,27.33,.23,27.33Z"></path><path class="cls-16" d="M491.19,541.37c-1.33-5.71-3.41-11.23-6.07-16.43h0s-.33-.67-.33-.67l.72-.09c1.48-.19,3-.54,4.5-.87h0s.16-.04,.16-.04l.11,.13,5.95,6.76h0s-1.47,.2-1.47,.2c1.04-2.38,2.12-4.73,3.23-7.07,1.1-2.34,2.21-4.68,3.4-6.98,1.19-2.3,2.4-4.59,3.75-6.8,.69-1.1,1.37-2.21,2.16-3.25,.75-1.06,1.63-2.06,2.7-2.88h-.01c1.05-.8,2.21-1.4,3.37-1.97,1.17-.56,2.36-1.07,3.57-1.53,1.2-.47,2.42-.91,3.64-1.32,1.22-.43,2.44-.85,3.68-1.23l.14,.48c-2.47,.69-4.92,1.51-7.3,2.47-1.19,.47-2.37,.98-3.52,1.55-1.14,.57-2.28,1.17-3.27,1.95h-.01c-.94,.8-1.77,1.78-2.47,2.85-.74,1.04-1.37,2.16-2.01,3.27-1.27,2.23-2.38,4.55-3.49,6.87-2.19,4.65-4.17,9.42-5.98,14.22l-.58,1.54-.89-1.34h0s-4.99-7.5-4.99-7.5l.27,.09h0c-1.48,.45-2.95,.9-4.5,1.22l.22-.43h0c2.59,5.31,4.57,10.92,5.8,16.7l-.49,.11Z"></path><path class="cls-16" d="M490.8,568.39c-4.21-2.41-8.48-4.72-12.8-6.9-2.16-1.09-4.35-2.13-6.56-3.09-2.21-.96-4.46-1.86-6.73-2.47h0s.86-.48,.86-.48c-1.75,5.74-4.53,11.1-7.78,16.08-3.27,4.99-7.05,9.6-11.04,13.99-4.01,4.38-8.27,8.52-12.63,12.52-2.18,2-4.39,3.97-6.59,5.94-2.19,1.97-4.42,3.92-6.43,5.96h0s-1.37,1.31-1.37,1.31l-.55-1.72c-.65-2.05-1.71-4.12-2.88-6.07-1.22-1.93-2.59-3.77-4.14-5.44-1.55-1.67-3.34-3.14-5.37-4.14-1.01-.49-2.09-.85-3.21-.95-.56-.06-1.12-.03-1.67,.04-.51,.16-1.23-.03-1.37,1.01h0s-3.9,2.7-3.9,2.7l2.87-3.97c7.61-10.51,15.37-20.91,23.15-31.29,7.79-10.37,15.61-20.72,23.48-31.04h0s1.05,1.65,1.05,1.65c-5.01,.93-10.01,1.66-15.04,2.26-5.03,.6-10.07,1.03-15.12,1.28h0s-.13,0-.13,0l-.06-.1c-1.09-1.66-1.64-3.52-2.05-5.4-.39-1.88-.55-3.81-.58-5.73,0-1.92,.14-3.84,.41-5.74,.12-.95,.32-1.89,.47-2.84l.63-2.81h0s.08-.36,.08-.36l.38-.1c7.59-1.95,15.12-4.14,22.64-6.39,7.51-2.26,15.01-4.59,22.5-6.93,7.49-2.34,14.99-4.68,22.52-6.92,3.77-1.11,7.54-2.2,11.35-3.2,1.9-.5,3.81-.97,5.74-1.39,1.93-.42,3.87-.8,5.87-.98h0s.13-.01,.13-.01l.12,.06c6.11,3.04,11.85,6.71,17.42,10.6l-.03-.02,.76,.53-.29,.41c-.44,.14-.69,.08-.91-.06l-.09-.05c-1.42-.92-2.85-1.82-4.29-2.7l-4.34-2.59c-1.45-.86-2.92-1.68-4.4-2.48-1.47-.82-2.95-1.61-4.45-2.36l.49,.09h0c-1.87,.17-3.79,.54-5.68,.95-1.9,.41-3.8,.88-5.69,1.37-3.78,.98-7.55,2.06-11.31,3.17-7.52,2.22-15.01,4.56-22.51,6.88-7.5,2.33-15,4.66-22.52,6.91-7.53,2.24-15.08,4.43-22.7,6.37l.46-.46h0s-.72,2.72-.72,2.72c-.19,.92-.42,1.83-.57,2.76-.33,1.85-.54,3.71-.61,5.59-.05,1.87,.04,3.75,.35,5.6,.32,1.83,.81,3.7,1.76,5.26l-.19-.09h0c5.02-.52,10.01-1.22,14.97-2.09,4.96-.86,9.91-1.87,14.78-3.04l2.85-.69-1.8,2.34h0c-7.91,10.27-15.79,20.58-23.62,30.91-7.83,10.33-15.63,20.69-23.29,31.15l-1.03-1.27h0c.49,.32,.79,.32,1.09,.23,.29-.07,.58-.17,.88-.22,.59-.1,1.2-.15,1.8-.11,1.21,.07,2.38,.4,3.47,.88,2.2,.96,4.07,2.48,5.81,4.07,1.73,1.62,3.28,3.41,4.68,5.31,1.43,1.9,2.75,3.86,3.77,6.14l-1.92-.41h0c2.16-2.13,4.4-4.04,6.63-5.99,2.23-1.94,4.45-3.87,6.64-5.83,4.38-3.92,8.65-7.96,12.66-12.24,4-4.28,7.78-8.79,11.04-13.63,3.25-4.85,6.03-10.04,7.79-15.59l.21-.67,.64,.19h0c2.42,.65,4.7,1.57,6.95,2.53,2.25,.97,4.46,2.02,6.64,3.11,4.37,2.18,8.66,4.5,12.89,6.91l-.74,1.29Z"></path><polygon class="cls-16" points="531.34 503.76 524.17 498.26 524.69 497.5 532.14 502.65 531.34 503.76"></polygon><path class="cls-16" d="M532.34,502.4c12.47,9.52,24.08,20.07,35.24,31.05,11.15,11,21.81,22.47,32.08,34.27l-.38,.33c-10.41-11.66-21.22-22.98-32.48-33.81-11.27-10.81-23-21.18-35.5-30.47l1.03-1.37Z"></path><path class="cls-16" d="M444.65,532.69c2.32-2.87,4.72-5.66,7.23-8.37,1.26-1.35,2.53-2.68,3.85-3.98,1.32-1.3,2.64-2.57,4.08-3.79h0s.27-.23,.27-.23l.33,.05c2.91,.44,5.68,1.1,8.45,1.86,2.76,.77,5.5,1.61,8.21,2.56,2.71,.93,5.39,1.94,8.04,2.99,.33,.14,.67,.25,.99,.41,.31,.18,.6,.43,.91,.61,.64,.32,1.32,.54,1.98,.81,1.33,.52,2.67,1,4.03,1.42l-.17,.47c-1.32-.55-2.65-1.05-4.01-1.5-.68-.22-1.35-.47-2.04-.66-.35-.07-.73-.07-1.09-.15-.35-.09-.67-.23-1.01-.35-2.68-.97-5.37-1.88-8.08-2.73-2.71-.84-5.43-1.67-8.17-2.37-2.73-.69-5.52-1.39-8.25-1.8l.6-.18h0c-1.35,1.16-2.68,2.43-3.97,3.71-1.29,1.28-2.55,2.6-3.79,3.94-2.47,2.69-4.85,5.46-7.14,8.31l-1.27-1.02Z"></path><path class="cls-18" d="M490.08,523.54s-2.03-3.34-4.01-5.73c.57,2.06,.63,6.65,.63,6.65l3.38-.92Z"></path><path class="cls-16" d="M556.54,593.84c1.28,.75,2.62,1.44,3.98,2.1,1.37,.63,2.76,1.22,4.16,1.78,1.4,.56,2.84,1.04,4.27,1.48,1.43,.42,2.92,.85,4.3,.96h-.1c2.9-.43,5.72-1.63,8.4-2.98,2.68-1.37,5.24-2.99,7.69-4.76,2.45-1.77,4.78-3.7,6.97-5.78,2.17-2.1,4.19-4.35,6.04-6.71l1.54,1.26c-2.01,2.36-4.17,4.59-6.47,6.64-2.28,2.08-4.69,4.02-7.22,5.79-2.53,1.77-5.17,3.38-7.95,4.75-2.78,1.34-5.68,2.54-8.85,2.97h-.05s-.04,0-.04,0c-1.66-.11-3.12-.53-4.61-.94-1.48-.43-2.94-.9-4.38-1.42-1.44-.52-2.87-1.08-4.29-1.67-1.43-.57-2.84-1.18-4.24-1.87l.85-1.6Z"></path><path class="cls-16" d="M535,578.68c-3.73-3.78-7.3-7.69-10.81-11.65-3.5-3.97-6.94-7.99-10.32-12.05-6.77-8.13-13.36-16.4-19.77-24.81l1.46-1.11c6.39,8.4,12.95,16.66,19.69,24.78,3.37,4.06,6.79,8.07,10.27,12.03,3.49,3.95,7.03,7.85,10.72,11.59l-1.25,1.24Z"></path><path class="cls-35" d="M529.99,501.58s-5.74-1.84-8.38,3.5c-2.64,5.35,13.07,67.94,20.1,77.56"></path><path class="cls-18" d="M533.19,588.32s2.8-4.88-1.1-14.8c3.4,3.42,6.61,6.46,9.63,9.13,8.08,7.17,14.81,11.83,20.29,14.62-9.57-3.22-19.45-6.24-28.82-8.95Z"></path><path class="cls-16" d="M474.14,557.95c.18,.83,.36,1.67,.57,2.5,.25,.81,.47,1.64,.74,2.45,.59,1.6,1.25,3.19,2.08,4.69,.8,1.51,1.79,2.92,2.9,4.22,1.11,1.27,2.39,2.49,3.79,3.32l-.09-.03c4.38,.96,8.75,1.97,13.12,3.01l13.08,3.16c4.36,1.05,8.72,2.14,13.06,3.25,4.36,1.06,8.71,2.19,13.05,3.32l-.44,1.53c-4.29-1.29-8.59-2.56-12.9-3.78-4.32-1.18-8.66-2.32-13-3.42-8.68-2.22-17.4-4.34-26.14-6.31h-.05s-.03-.03-.03-.03c-1.63-.9-2.92-2.1-4.13-3.41-1.2-1.31-2.21-2.77-3.17-4.26-.97-1.49-1.74-3.09-2.48-4.7-.38-.8-.7-1.63-1.05-2.45l-.9-2.51,2-.54Z"></path><path class="cls-16" d="M492.01,567.9c-.09,1.09-.34,2.07-.72,3.04-.39,.96-.93,1.87-1.65,2.62-.35,.39-.78,.69-1.19,1-.46,.24-.9,.52-1.4,.65-.96,.37-1.99,.42-2.99,.43v-.34c.96-.08,1.93-.2,2.79-.61,.45-.16,.83-.44,1.22-.68,.35-.31,.71-.6,.99-.97,.59-.71,1.02-1.55,1.3-2.44,.28-.88,.44-1.85,.45-2.72l1.2,.02Z"></path><path class="cls-16" d="M400.9,593.73c-2.97,3.78-5.86,7.61-8.74,11.46-1.45,1.91-2.86,3.86-4.29,5.79l-4.27,5.8-.34-.89c1.74,.39,3.5,1.13,4.85,2.43,1.37,1.27,2.22,2.98,2.77,4.66,.56,1.69,.87,3.41,1.33,5.02,.45,1.6,1.14,3.1,2.42,3.82l-.1-.05c.17,.06,.64,.02,1.04-.09,.42-.12,.85-.28,1.28-.49,.85-.4,1.66-.92,2.43-1.48,1.56-1.13,2.96-2.49,4.27-3.94l-.07,.09c2.23-3.33,4.83-6.36,7.51-9.29,1.35-1.46,2.73-2.88,4.15-4.28,1.42-1.39,2.85-2.75,4.36-4.09l1.55,1.84c-1.48,1.22-2.96,2.52-4.4,3.84-1.44,1.32-2.85,2.67-4.23,4.05-2.75,2.77-5.32,5.71-7.56,8.86l-.04,.06-.03,.03c-1.4,1.48-2.91,2.88-4.61,4.05-.85,.59-1.74,1.13-2.7,1.57-.48,.22-.99,.41-1.52,.56-.55,.11-1.11,.27-1.91,.02h-.04s-.06-.05-.06-.05c-.86-.51-1.54-1.29-2.01-2.12-.47-.83-.75-1.7-.99-2.56-.47-1.71-.75-3.4-1.26-4.99-.49-1.59-1.23-3.07-2.39-4.18-1.14-1.12-2.67-1.8-4.27-2.19l-.84-.2,.5-.69,4.26-5.82c1.41-1.94,2.85-3.87,4.24-5.83,2.8-3.91,5.6-7.82,8.31-11.79l1.43,1.06Z"></path><path class="cls-16" d="M404.21,626.33c.25,2.85,.37,5.7,.43,8.56,.06,2.86,.08,5.73-.18,8.59-.14,1.43-.29,2.87-.6,4.3-.15,.71-.34,1.43-.65,2.14-.02,.06-.09,.23-.18,.34-.08,.11-.17,.19-.26,.27-.17,.15-.34,.26-.51,.36-.34,.21-.67,.38-1.01,.53-1.35,.62-2.76,.95-4.14,1.31-1.39,.35-2.78,.68-4.17,1-2.77,.67-5.59,1.22-8.23,2.16-1.3,.47-2.44,1.22-3.58,2.07-1.13,.84-2.27,1.73-3.47,2.54-1.19,.82-2.45,1.55-3.75,2.19-1.32,.6-2.66,1.16-4.04,1.58-2.75,.88-5.59,1.42-8.44,1.72l-.06-.49c2.8-.49,5.57-1.1,8.23-2.03,2.66-.93,5.17-2.22,7.51-3.78,1.17-.78,2.29-1.65,3.45-2.5,1.15-.85,2.43-1.67,3.83-2.16,2.75-.93,5.52-1.63,8.28-2.35,2.76-.7,5.53-1.45,8.15-2.32,.32-.11,.64-.23,.93-.37,.29-.16,.52-.29,.57-.47,.27-.6,.45-1.27,.6-1.95,.3-1.36,.46-2.77,.59-4.17,.24-2.82,.41-5.66,.5-8.51,.08-2.85,.1-5.7,.1-8.55h.1Z"></path><path class="cls-16" d="M339.45,663.31c-1.56-.73-3.07-1.51-4.52-2.46h0s-.13-.07-.13-.07l-.03-.16c-.2-1.27-.35-2.54-.38-3.84-.01-.65,0-1.3,.05-1.96,.08-.66,.13-1.33,.55-2.07l-.03,.05c.28-.48,.6-.84,.93-1.16,.33-.32,.68-.62,1.04-.89,.71-.54,1.45-1.03,2.2-1.5,1.5-.93,3.04-1.77,4.6-2.56,1.56-.79,3.15-1.52,4.76-2.22,.8-.34,1.61-.68,2.44-.95,.82-.3,1.65-.58,2.5-.81h0s-.11,.06-.11,.06c2.32-2.15,4.54-4.43,6.78-6.68l6.72-6.79c2.28-2.23,4.51-4.51,6.81-6.73,2.26-2.25,4.59-4.44,6.94-6.61h0s.13-.13,.13-.13l.26-.02,2.23-.2-.11,1.41-2.19-.26,.39-.15h0c-2.03,2.49-4.11,4.92-6.28,7.27-2.14,2.38-4.38,4.67-6.6,6.97-2.27,2.26-4.57,4.48-6.96,6.63-2.4,2.13-4.85,4.23-7.61,5.96l-.08,.05h-.03s0,.01,0,.01c-.78,.38-1.59,.69-2.38,1.04-.79,.34-1.58,.7-2.38,1.02-1.58,.69-3.15,1.42-4.68,2.2-1.54,.78-3.05,1.61-4.5,2.51-.72,.46-1.44,.93-2.11,1.44-.66,.49-1.33,1.1-1.65,1.63v.02s-.03,.03-.03,.03c-.2,.35-.32,.96-.38,1.54-.05,.6-.07,1.21-.06,1.83,.02,1.23,.12,2.49,.27,3.71l-.34-.53h0c.63,.47,1.36,.93,2.07,1.37,.72,.43,1.45,.84,2.2,1.23l-.3,.75Z"></path><path class="cls-16" d="M335.29,653.4c5.35,2.82,11.14,4.73,17.09,5.34,2.97,.32,5.98,.29,8.97,.04,.77-.06,1.47-.14,2.17-.31l1.06-.31,1.05-.38c1.39-.54,2.77-1.15,4.12-1.8,2.72-1.29,5.41-2.67,8.12-4.03,1.36-.67,2.72-1.34,4.12-1.96,1.39-.62,2.81-1.2,4.34-1.59,2.99-.61,5.89-1.27,8.78-2.15,2.87-.88,5.72-1.89,8.48-3.06l.33,.73c-2.78,1.27-5.63,2.32-8.53,3.24-2.89,.92-5.89,1.65-8.83,2.21-1.41,.34-2.81,.91-4.18,1.5-1.38,.59-2.74,1.25-4.09,1.9-2.71,1.32-5.39,2.73-8.14,4.03-1.37,.66-2.76,1.28-4.19,1.83l-1.08,.39-1.12,.33c-.77,.19-1.57,.3-2.31,.35-3.03,.27-6.11,.33-9.15-.04-6.1-.65-11.95-2.91-17.04-6.18l.05-.09Z"></path><path class="cls-35" d="M404.1,633.77c-5.3-1.54-15.37,12.36-16.12,14.8"></path><path class="cls-18" d="M361.39,665.74s-20.89,4.35-25.19,.56c-2.35-2.06,3.47-3.52,3.47-3.52,4.69,1.9,12.57,4.17,21.72,2.96Z"></path><path class="cls-16" d="M332.02,666.08c.34,.31,.72,.52,1.11,.73,.39,.2,.78,.39,1.19,.56,.8,.36,1.63,.68,2.45,1.1-.46,0-.91-.09-1.35-.2-.45-.1-.88-.26-1.3-.44-.42-.19-.83-.4-1.2-.69-.36-.28-.72-.62-.9-1.05Z"></path><path class="cls-16" d="M416.5,513.75c-2.67,.71-5.34,1.35-8.04,1.89-1.35,.27-2.71,.52-4.08,.71-1.38,.18-2.76,.34-4.19,.35l.64-1.11c.57,1.01,.97,2.16,1.05,3.35,.1,1.19-.13,2.39-.57,3.47-.44,1.08-1.06,2.06-1.8,2.93-.38,.44-.73,.83-1.23,1.23-.48,.37-.94,.66-1.4,.95-1.84,1.13-3.72,2.14-5.24,3.47-.74,.65-1.35,1.45-1.4,2.16,.01,.34,.1,.65,.37,.93,.29,.27,.66,.52,1.11,.69,.88,.38,1.91,.55,2.92,.68,.51,.05,1.04,.1,1.53,.11h1.6c2.14,.01,4.27,0,6.41-.03,2.14-.02,4.27-.04,6.41-.1,2.13-.06,4.27-.11,6.38-.33l.07,.49c-4.26,.7-8.55,.91-12.83,1.12-2.14,.08-4.28,.13-6.43,.18l-1.61,.03c-.58,0-1.12-.03-1.68-.09-1.1-.13-2.21-.3-3.31-.76-.55-.21-1.1-.54-1.59-1-.5-.48-.8-1.24-.78-1.97,.04-.73,.33-1.36,.68-1.86,.35-.51,.76-.93,1.18-1.32,1.71-1.51,3.63-2.54,5.42-3.66,.93-.56,1.62-1.09,2.27-1.9,.65-.76,1.19-1.61,1.56-2.51,.78-1.8,.61-3.83-.37-5.53l-.64-1.1h1.28c1.31,0,2.66-.15,3.99-.33,1.34-.17,2.68-.39,4.02-.64,2.67-.49,5.34-1.09,7.98-1.75l.33,1.24Z"></path><path class="cls-16" d="M373.4,543.42c.08-.03,.08-.03,.19-.04l.33-.05c.22-.03,.46-.09,.69-.13,.46-.1,.93-.2,1.4-.31,.93-.22,1.87-.46,2.79-.71,1.85-.51,3.7-1.03,5.52-1.66,1.82-.61,3.61-1.27,5.37-2.02,1.75-.77,3.45-1.62,5.13-2.59l.44,.56c-1.42,1.41-3.09,2.56-4.83,3.54-1.75,.98-3.6,1.74-5.47,2.41-1.88,.65-3.81,1.16-5.76,1.52-.97,.19-1.96,.33-2.95,.43-.5,.04-.99,.08-1.5,.1-.26,0-.5,.02-.77,0l-.4-.03c-.13,0-.38-.06-.54-.11l.37-.9Z"></path><path class="cls-16" d="M399.74,516.59c-3.64-2.53-7.84-4.36-11.95-6.27-4.13-1.9-8.33-3.74-12.27-6.18-1.97-1.2-3.83-2.68-5.47-4.28-1.66-1.59-3.23-3.28-4.72-5.01-.75-.87-1.48-1.75-2.2-2.64l-.54-.67c-.19-.21-.32-.47-.59-.63-.39-.42-.71-.89-1.07-1.34-1.4-1.79-2.76-3.62-4.26-5.27l.84-.02c-.82,.95-1.38,2.18-1.79,3.45-.42,1.27-.69,2.61-.88,3.95-.38,2.7-.47,5.44-.4,8.18,.14,5.48,.88,10.96,2.12,16.31,.64,2.67,1.42,5.31,2.43,7.85,.26,.62,.52,1.3,.82,1.84,.34,.54,.82,1.01,1.34,1.44,.26,.22,.53,.42,.8,.63,.15,.09,.22,.28,.31,.45,.08,.18,.25,.24,.39,.34,.57,.38,1.15,.76,1.69,1.21,.57,.43,.91,1.09,1.26,1.67l1.02,1.81c.67,1.21,1.33,2.42,2.02,3.61,.7,1.18,1.4,2.37,2.21,3.47,.81,1.09,1.68,2.16,2.7,2.92l-.69,.88c-1.13-1-1.91-2.17-2.66-3.36-.73-1.19-1.42-2.4-2.06-3.63-.64-1.23-1.26-2.47-1.86-3.71l-.93-1.85c-.33-.61-.62-1.23-1.14-1.67-.5-.46-1.06-.87-1.62-1.28-.14-.09-.26-.23-.46-.25-.19-.03-.4-.03-.53-.15-.28-.2-.56-.41-.84-.64-.54-.45-1.07-.94-1.48-1.57-.2-.33-.34-.65-.48-.97-.14-.32-.29-.64-.41-.96-1.07-2.57-1.88-5.23-2.57-7.92-1.33-5.39-2.12-10.91-2.31-16.46-.08-2.78-.02-5.57,.35-8.34,.19-1.39,.45-2.77,.86-4.13,.42-1.35,.97-2.71,1.93-3.88l.4-.48,.44,.47c1.6,1.69,3,3.49,4.44,5.26,.35,.45,.73,.87,1.06,1.34,.09,.29,.31,.48,.48,.71l.54,.66c.72,.88,1.44,1.75,2.18,2.6,1.48,1.71,3.02,3.36,4.66,4.91,1.63,1.58,3.36,2.95,5.29,4.11,3.83,2.36,8.01,4.18,12.15,6.06,2.08,.94,4.15,1.88,6.2,2.9,2.05,1.02,4.08,2.1,5.98,3.44l-.75,1.06Z"></path><path class="cls-16" d="M357.1,484.74c-1.36,.02-2.71,.15-4.03,.42-.66,.13-1.32,.3-1.96,.5-.63,.2-1.3,.44-1.84,.7h0s.2-.14,.2-.14c-.31,.3-.6,.97-.79,1.63-.2,.67-.33,1.39-.44,2.12-.21,1.46-.3,2.96-.36,4.46-.11,3.01-.02,6.04,.19,9.06,.42,6.04,1.32,12.07,2.8,17.89,.38,1.45,.83,2.87,1.37,4.24,.57,1.36,1.17,2.65,2.08,3.7,.85,1.03,2.13,1.92,3.3,2.99,.59,.53,1.16,1.11,1.68,1.74,.53,.65,.95,1.29,1.37,1.96,.84,1.33,1.55,2.74,2.17,4.16,.64,1.4,1.15,2.86,1.94,4.02,.04,.06,.12,.18,.13,.18-.02-.02,.01,0,.05,.02,.1,.04,.25,.07,.41,.09,.33,.04,.69,.04,1.05,.02,.73-.03,1.48-.12,2.22-.23,1.49-.22,2.99-.53,4.46-.87l.23,.94c-1.5,.38-3,.7-4.53,.96-.77,.12-1.54,.23-2.33,.28-.4,.02-.8,.03-1.24-.01-.22-.03-.45-.06-.71-.16-.14-.06-.28-.13-.43-.28-.12-.13-.14-.18-.22-.28-.96-1.36-1.48-2.81-2.14-4.17-.64-1.37-1.34-2.7-2.17-3.96-.81-1.29-1.74-2.4-2.89-3.36-1.12-.99-2.42-1.82-3.51-3.05-1.1-1.2-1.81-2.65-2.42-4.08-.6-1.44-1.07-2.92-1.49-4.41-.84-2.98-1.4-6.01-1.83-9.06-.43-3.04-.73-6.1-.91-9.17-.17-3.07-.23-6.14-.08-9.22,.08-1.54,.21-3.08,.47-4.61,.13-.77,.29-1.53,.53-2.28,.25-.75,.53-1.52,1.18-2.16l.03-.03,.05-.03h0c1.31-.68,2.67-1.14,4.07-1.5,1.41-.35,2.85-.57,4.31-.65v1.63Z"></path><path class="cls-35" d="M367.27,535.09c13.74,0,17.06,6.49,17.06,6.49"></path><path class="cls-18" d="M569.14,519.71c1.09,.3,3.1,.31,4.08,.79-2.52,.48-4.85,1.47-4.85,1.47"></path><path class="cls-18" d="M558.01,513.18s3.49,4.26,4.67,6.53"></path><line class="cls-35" x1="614.93" y1="548.04" x2="614.92" y2="548.03"></line><path class="cls-18" d="M646.57,507.37c-2.31,8.04-5.23,13.69-7.42,17.17-1.84,2.93-3.16,4.33-3.16,4.33-2.96-2.16-5.97-4.47-8.97-6.89,11.41-1.13,15.61-5.54,15.61-5.54,0,0,1.3-9.92,0-18.66,2.92,5.22,3.94,9.59,3.94,9.59Z"></path><path class="cls-18" d="M649.2,537.22c-4.28-2.31-8.61-4.99-13.21-8.35,0,0,1.32-1.4,3.16-4.33,0,0,3.77,.26,7.24-1.49,.04-.02,.08,.02,.05,.05-1.99,2.08-8.93,5-8.93,5,0,0,2.23,4.06,10.76,2.78,0,3.59,.93,6.33,.93,6.33Z"></path><path class="cls-16" d="M650.99,536.83c.28,.43,.5,.81,.73,1.22,.22,.41,.43,.83,.57,1.32-.45-.26-.76-.66-1.01-1.09-.22-.44-.39-.94-.29-1.46Z"></path><path class="cls-16" d="M653.76,539.25c.2,.18,.31,.29,.4,.47,.07,.17,.13,.35,.08,.63-.28-.06-.43-.22-.53-.41-.08-.19-.14-.46,.05-.68Z"></path><path class="cls-18" d="M532.5,503.44c-.84-.63-1.68-1.26-2.51-1.86-.5-.37-.99-.73-1.49-1.09,.41-2.37,1.67-5.19,3.03-7.69l.97,10.64Z"></path><path class="cls-16" d="M447.41,610.84c-5.14,1.97-10.24,4.07-15.01,6.79l-.3-.53c4.83-2.72,9.97-4.79,15.13-6.74l.18,.47Z"></path><path class="cls-16" d="M489.01,598.76c-5.65,1.33-11.26,2.77-16.83,4.39l-8.35,2.42c-2.78,.8-5.56,1.64-8.32,2.52h0c-.07,.03-.15,.02-.22,0-1.34-.45-2.66-.93-3.97-1.47-1.3-.55-2.6-1.12-3.79-1.97l.47-.37c.58,1.32,1.63,2.45,2.74,3.46,1.12,1.01,2.35,1.91,3.62,2.71h0c.1,.06,.13,.19,.08,.29-.05,.08-.15,.12-.24,.1-1.67-.44-3.33-.91-4.99-1.4-.83-.25-1.65-.5-2.47-.78-.82-.28-1.64-.55-2.44-.95h0s.29-.31,.29-.31c.73,1.15,1.7,2.16,2.78,3.01,1.08,.85,2.28,1.6,3.53,2.18h0c.07,.03,.1,.11,.07,.18-.03,.07-.11,.1-.18,.07-1.3-.57-2.51-1.3-3.64-2.15-1.12-.85-2.14-1.87-2.93-3.06-.07-.1-.04-.23,.06-.3,.07-.04,.15-.05,.21-.01h.01s0,0,0,0c.74,.37,1.56,.65,2.37,.93,.81,.27,1.64,.53,2.46,.77,1.65,.49,3.31,.96,4.97,1.4l-.16,.39h0c-1.32-.79-2.58-1.68-3.75-2.68-1.16-1.01-2.27-2.14-2.96-3.61-.07-.15,0-.34,.15-.41,.1-.05,.22-.03,.31,.03h.01c.55,.39,1.16,.71,1.78,1.01,.62,.3,1.26,.58,1.9,.83,1.29,.52,2.61,.99,3.93,1.41h-.23c2.74-.95,5.5-1.87,8.27-2.75,2.77-.88,5.58-1.63,8.39-2.38,5.63-1.44,11.29-2.74,16.98-3.92,.12-.02,.23,.05,.25,.17,.02,.11-.05,.22-.16,.25Z"></path><path class="cls-16" d="M542.68,591.51c-4.03-.08-8.07,.14-12.1,.49-4.03,.34-8.04,.85-12.04,1.46-4,.61-7.99,1.27-11.96,2.01-3.98,.73-7.96,1.44-11.92,2.26h0c-.05,.01-.11,.01-.16,0-2.27-.54-4.51-1.16-6.72-1.89-2.21-.74-4.41-1.54-6.45-2.71l.32-.35c1.32,1.84,3.22,3.23,5.19,4.38,1.99,1.14,4.08,2.12,6.24,2.92,.07,.02,.11,.1,.08,.17-.02,.07-.1,.1-.17,.09-1.12-.34-2.19-.77-3.26-1.23-1.07-.46-2.11-.98-3.11-1.58-2-1.18-3.91-2.59-5.36-4.47-.08-.1-.06-.25,.04-.34,.08-.06,.18-.06,.26-.02h.01c2.01,1.09,4.21,1.83,6.41,2.51,2.21,.66,4.45,1.23,6.7,1.72h-.17c3.96-.87,7.92-1.73,11.92-2.43,3.99-.7,8-1.35,12.02-1.88,4.02-.52,8.05-.99,12.1-1.35,4.04-.35,8.1-.56,12.17-.54,.21,0,.38,.17,.38,.39,0,.21-.17,.38-.39,.38,0,0,0,0,0,0Z"></path><path class="cls-16" d="M483.01,614.11c-1.19-.45-2.32-1.03-3.42-1.68-1.08-.68-2.15-1.36-3.13-2.2l.53-.34c.12,.42,.32,.89,.53,1.32,.22,.43,.47,.86,.74,1.26,.55,.81,1.23,1.55,2,2.16,.05,.04,.06,.12,.02,.17-.03,.04-.08,.05-.12,.04-.85-.18-1.71-.34-2.56-.56-.85-.21-1.69-.46-2.51-.77-.83-.29-1.63-.64-2.43-1.01-.8-.37-1.57-.77-2.34-1.23l.53-.59c.87,1.06,1.82,2.11,2.82,3.09,.51,.48,1,.98,1.53,1.45,.52,.47,1.06,.93,1.6,1.38,.02,.01,.02,.04,0,.05-.01,.01-.03,.02-.05,0-1.24-.7-2.41-1.53-3.5-2.45-1.09-.93-2.12-1.91-3.04-3.03-.14-.17-.12-.42,.05-.56,.13-.11,.32-.12,.46-.04h.02c1.46,.87,3,1.67,4.57,2.35,.79,.34,1.58,.67,2.4,.97,.81,.3,1.64,.53,2.49,.71l-.1,.21c-.76-.66-1.48-1.36-2.15-2.12-.32-.39-.63-.8-.9-1.23-.27-.44-.52-.87-.7-1.4-.06-.17,.04-.35,.2-.41,.1-.03,.21-.01,.3,.05l.03,.02c.98,.75,1.97,1.53,3.01,2.22,1.02,.73,2.08,1.4,3.15,2.08,.02,.01,.02,.03,.01,.05,0,.02-.03,.02-.05,.02Z"></path><path class="cls-16" d="M473.04,616.26c.25,.02,.47,.1,.68,.18,.22,.08,.41,.19,.6,.3,.18,.12,.37,.25,.53,.41,.16,.16,.32,.32,.45,.54-.25-.02-.47-.1-.68-.18-.22-.08-.41-.19-.6-.3-.18-.13-.37-.25-.53-.41-.16-.16-.32-.32-.45-.54Z"></path><path class="cls-16" d="M488.64,601.35c.46-.29,.85-.28,1.21-.2,.36,.11,.7,.29,.96,.77-.46,.29-.85,.28-1.21,.2-.36-.11-.7-.29-.96-.77Z"></path><path class="cls-16" d="M515.64,608.37c-.83-1.06-1.53-2.22-2.13-3.43-.58-1.22-1.12-2.46-1.44-3.8l.6-.08c-.06,1.11-.14,2.22-.18,3.34-.02,1.11,0,2.22,.05,3.34,0,.1-.07,.18-.16,.18-.04,0-.08-.01-.11-.03h-.01c-1.2-.92-2.41-1.82-3.58-2.76l.57-.3c.17,1.41,.35,2.86,.67,4.19v.03c.06,.21-.07,.42-.28,.47-.1,.03-.21,0-.29-.05-.69-.42-1.32-.9-1.92-1.42-.59-.52-1.16-1.05-1.71-1.63l.47-.24c.19,1.29,.52,2.6,1.12,3.79,.01,.02,0,.04-.01,.05-.02,0-.04,0-.05-.01-.82-1.1-1.28-2.4-1.61-3.74-.04-.14,.05-.29,.2-.33,.09-.02,.18,0,.24,.06l.03,.02c1.13,1.03,2.34,2.01,3.63,2.76l-.57,.45c-.22-.74-.32-1.46-.42-2.18-.09-.73-.15-1.45-.2-2.17h0c-.01-.2,.13-.37,.32-.38,.09,0,.18,.03,.25,.08,1.14,.98,2.25,2,3.36,3.02l-.29,.14c.06-1.11,.07-2.22,.05-3.34-.04-1.11-.12-2.22-.18-3.34,0-.17,.12-.31,.29-.32,.14,0,.26,.08,.3,.21v.03c.43,1.23,.86,2.5,1.38,3.71,.27,.61,.51,1.23,.8,1.82l.87,1.81s0,.04-.02,.05c-.02,0-.04,0-.05-.01Z"></path></g></g></g></svg>